<svg xmlns="http://www.w3.org/2000/svg" width="160" height="50" viewBox="0 0 160 50" fill="none"><g clip-path="url(#clip0_22_2785)"><path d="M57.4667 35.5422V16.3916H70.6909V20.9759H62.7576V24.1627H69.2242V28.4277H62.7576V35.5422H57.4667Z" fill="white"></path><path d="M72.6484 35.5422V16.3916H77.9394V30.9639H86.6666V35.5422H72.6484Z" fill="white"></path><path d="M89.8363 16.3916L93.2848 24.6988L96.8181 16.4157H102.576L95.909 29.2349V35.5422H90.6424V29.1566L84.0969 16.3916H89.8363Z" fill="white"></path><path d="M101.733 25.8072C101.728 24.63 101.933 23.4613 102.339 22.3554C102.745 21.2339 103.362 20.1994 104.158 19.3072C104.979 18.3914 105.976 17.6479 107.091 17.1205C108.325 16.534 109.68 16.2411 111.049 16.2651C112.629 16.2284 114.189 16.6243 115.558 17.4096C116.786 18.111 117.778 19.1594 118.406 20.4217L114.358 23.2831C114.219 22.8621 114.003 22.47 113.721 22.1265C113.48 21.8351 113.191 21.5866 112.867 21.3916C112.563 21.2182 112.234 21.0922 111.891 21.0181C111.578 20.9497 111.259 20.9133 110.939 20.9096C110.333 20.8931 109.734 21.0476 109.212 21.3554C108.727 21.6472 108.313 22.0422 108 22.5121C107.678 23.0087 107.444 23.5569 107.309 24.1325C107.165 24.7243 107.092 25.3309 107.091 25.9398C107.088 26.5868 107.174 27.2313 107.345 27.8554C107.505 28.4512 107.77 29.0141 108.127 29.5181C108.445 29.974 108.859 30.3563 109.339 30.6386C109.838 30.926 110.406 31.0718 110.982 31.0602C111.303 31.0576 111.622 31.0172 111.933 30.9398C112.265 30.8539 112.58 30.7156 112.867 30.5301C113.533 30.111 114.029 29.4708 114.267 28.7229L118.588 31.2892C118.318 31.9937 117.906 32.6356 117.376 33.1747C116.821 33.7358 116.184 34.2092 115.485 34.5783C114.073 35.3309 112.499 35.73 110.897 35.741C109.614 35.7538 108.347 35.4626 107.2 34.8916C106.096 34.3378 105.114 33.572 104.309 32.6386C103.496 31.6866 102.858 30.5997 102.424 29.4277C101.972 28.2733 101.738 27.046 101.733 25.8072Z" fill="white"></path><path d="M128.539 35.7169C127.236 35.7341 125.947 35.4473 124.776 34.8795C123.67 34.3462 122.683 33.5986 121.873 32.6807C121.057 31.7655 120.42 30.7073 119.994 29.5602C119.553 28.4055 119.327 27.1808 119.327 25.9458C119.318 24.6956 119.546 23.455 120 22.2891C120.445 21.1469 121.103 20.0984 121.939 19.1988C122.775 18.3075 123.775 17.5837 124.885 17.0663C126.063 16.522 127.349 16.2481 128.649 16.2651C129.95 16.2478 131.237 16.5347 132.406 17.1024C133.514 17.6394 134.503 18.3911 135.315 19.3132C136.123 20.2355 136.754 21.2973 137.176 22.4458C137.606 23.6027 137.826 24.8267 137.824 26.0602C137.826 27.2977 137.592 28.5242 137.133 29.6747C136.688 30.8079 136.039 31.8511 135.218 32.753C134.39 33.6524 133.394 34.3829 132.285 34.9036C131.113 35.45 129.833 35.7279 128.539 35.7169ZM124.709 26C124.705 26.6317 124.783 27.2613 124.939 27.8735C125.08 28.4487 125.324 28.9937 125.661 29.4819C125.976 29.943 126.39 30.3296 126.873 30.6144C127.401 30.9029 127.994 31.0541 128.597 31.0541C129.2 31.0541 129.793 30.9029 130.321 30.6144C130.811 30.3265 131.226 29.9283 131.533 29.4518C131.853 28.9489 132.089 28.3975 132.23 27.8193C132.383 27.2103 132.46 26.5853 132.461 25.9578C132.46 25.3236 132.379 24.6921 132.218 24.0783C132.077 23.5085 131.839 22.9666 131.515 22.4759C131.199 22.0216 130.785 21.643 130.303 21.3675C129.78 21.0809 129.191 20.9375 128.594 20.9518C127.991 20.935 127.395 21.0852 126.873 21.3855C126.386 21.6699 125.971 22.0615 125.661 22.5301C125.336 23.0269 125.098 23.5748 124.958 24.1506C124.796 24.754 124.712 25.3755 124.709 26Z" fill="white"></path><path d="M154.691 35.5422V25.4578L151.461 32.5602H148.636L145.4 25.4578V35.5422H140.109V16.3916H145.891L150.049 25.4277L154.23 16.3916H160V35.5422H154.691Z" fill="white"></path><path d="M63.3697 42.9759H60.8909V49.3494H59.709V42.9759H57.2181V41.9458H63.3697V42.9759Z" fill="white"></path><path d="M71.5758 48.3193V49.3494H66.4667V41.9458H71.5152V42.9759H67.6727V45.0843H71V46.0542H67.6727V48.3193H71.5758Z" fill="white"></path><path d="M74.2606 45.5964C74.264 45.1421 74.346 44.6917 74.503 44.2651C74.6617 43.823 74.9022 43.4143 75.2121 43.0602C75.5303 42.702 75.9178 42.4111 76.3515 42.2048C76.8283 41.9871 77.3481 41.878 77.8727 41.8855C78.485 41.8692 79.0897 42.0236 79.6182 42.3313C80.0808 42.6164 80.4577 43.0201 80.7091 43.5L79.7818 44.1024C79.689 43.8961 79.562 43.7067 79.4061 43.5422C79.2657 43.3942 79.102 43.27 78.9212 43.1747C78.7485 43.0874 78.5652 43.0226 78.3758 42.9819C78.1961 42.9466 78.0135 42.9284 77.8303 42.9277C77.4745 42.9196 77.1223 43.0004 76.8061 43.1627C76.5169 43.3079 76.2627 43.5134 76.0606 43.7651C75.8628 44.0247 75.7111 44.316 75.6121 44.6265C75.5121 44.9381 75.461 45.2633 75.4606 45.5904C75.4598 45.9412 75.5193 46.2895 75.6364 46.6205C75.7505 46.9372 75.9209 47.231 76.1394 47.488C76.3468 47.7392 76.6049 47.9444 76.897 48.0904C77.1951 48.2423 77.5256 48.3208 77.8606 48.3193C78.0503 48.3174 78.2393 48.2952 78.4243 48.253C78.6195 48.2045 78.8071 48.1295 78.9818 48.0301C79.1612 47.9251 79.3262 47.7975 79.4727 47.6506C79.6292 47.4888 79.7563 47.3013 79.8485 47.0964L80.8243 47.6506C80.7046 47.9249 80.534 48.1742 80.3212 48.3855C80.1013 48.5979 79.8524 48.7784 79.5818 48.9217C79.0411 49.2161 78.4348 49.3714 77.8182 49.3735C77.319 49.3778 76.8263 49.262 76.3818 49.0362C75.9572 48.8186 75.577 48.5244 75.2606 48.1687C74.9471 47.8128 74.6989 47.405 74.5273 46.9639C74.3561 46.5278 74.2658 46.0645 74.2606 45.5964Z" fill="white"></path><path d="M90.1334 41.9458V49.3494H88.9212V46.0843H85.1637V49.3494H83.9879V41.9458H85.1637V45.0422H88.9212V41.9458H90.1334Z" fill="white"></path><path d="M95.0849 44.1325V49.3494H93.9395V41.9458H94.8667L99.1091 47.2831V41.9518H100.321V49.3494H99.3455L95.0849 44.1325Z" fill="white"></path><path d="M107.152 49.3976C106.651 49.4026 106.155 49.2933 105.703 49.0783C105.274 48.8762 104.89 48.5893 104.576 48.2349C104.257 47.8827 104.009 47.4739 103.842 47.0301C103.674 46.5853 103.588 46.1139 103.588 45.6385C103.587 45.1537 103.68 44.6731 103.861 44.2229C104.035 43.7791 104.29 43.3707 104.612 43.0181C104.929 42.6668 105.314 42.3838 105.745 42.1867C106.193 41.9791 106.682 41.8741 107.176 41.8795C107.68 41.8719 108.179 41.9856 108.63 42.2108C109.056 42.421 109.437 42.7115 109.752 43.0663C110.062 43.4225 110.306 43.8303 110.473 44.2711C110.645 44.7088 110.733 45.1746 110.733 45.6446C110.734 46.1308 110.644 46.6129 110.467 47.0663C110.294 47.5111 110.039 47.9198 109.715 48.2711C109.392 48.6162 109.005 48.8963 108.576 49.0964C108.13 49.3014 107.643 49.4044 107.152 49.3976ZM104.782 45.6385C104.78 45.985 104.838 46.3291 104.952 46.6566C105.053 46.9719 105.216 47.2645 105.43 47.5181C105.634 47.7682 105.888 47.9734 106.176 48.1205C106.482 48.2725 106.821 48.349 107.164 48.3434C107.514 48.3507 107.86 48.2699 108.17 48.1084C108.454 47.9584 108.705 47.7536 108.909 47.506C109.112 47.2455 109.268 46.952 109.37 46.6385C109.474 46.3214 109.527 45.9901 109.527 45.6566C109.529 45.3121 109.472 44.9698 109.358 44.6446C109.253 44.3322 109.091 44.042 108.879 43.7892C108.673 43.5409 108.42 43.3361 108.133 43.1867C107.833 43.0348 107.5 42.9583 107.164 42.9638C106.814 42.9573 106.468 43.038 106.158 43.1988C105.869 43.3451 105.615 43.5504 105.412 43.8012C105.205 44.0577 105.047 44.3496 104.945 44.6626C104.838 44.979 104.782 45.3106 104.782 45.6446V45.6385Z" fill="white"></path><path d="M114.048 49.3494V41.9458H115.224V48.3193H119.224V49.3494H114.048Z" fill="white"></path><path d="M124.903 49.3976C124.4 49.4033 123.902 49.294 123.449 49.0783C123.021 48.873 122.638 48.5865 122.321 48.2349C122.005 47.8811 121.757 47.4728 121.588 47.0301C121.419 46.5853 121.333 46.1139 121.333 45.6385C121.332 45.1537 121.425 44.6731 121.606 44.2229C121.781 43.7791 122.035 43.3707 122.358 43.0181C122.675 42.6682 123.061 42.3854 123.491 42.1867C123.939 41.9797 124.427 41.8747 124.921 41.8795C125.426 41.8719 125.925 41.9856 126.376 42.2108C126.802 42.421 127.183 42.7115 127.497 43.0663C127.809 43.4222 128.055 43.8301 128.224 44.2711C128.392 44.7099 128.478 45.1752 128.479 45.6446C128.482 46.1311 128.392 46.6137 128.212 47.0663C128.042 47.5123 127.787 47.9214 127.461 48.2711C127.139 48.6174 126.752 48.8978 126.321 49.0964C125.877 49.3007 125.392 49.4037 124.903 49.3976ZM122.527 45.6385C122.529 45.9847 122.586 46.3284 122.697 46.6566C122.804 46.9698 122.966 47.2615 123.176 47.5181C123.38 47.7696 123.637 47.975 123.927 48.1205C124.237 48.271 124.577 48.3493 124.921 48.3493C125.266 48.3493 125.606 48.271 125.915 48.1205C126.2 47.9718 126.452 47.7668 126.655 47.5181C126.857 47.2575 127.013 46.964 127.115 46.6506C127.219 46.3335 127.272 46.0022 127.273 45.6687C127.275 45.3242 127.217 44.9818 127.103 44.6566C127.001 44.3446 126.84 44.0544 126.63 43.8012C126.425 43.553 126.171 43.3481 125.885 43.1988C125.583 43.0468 125.248 42.9703 124.909 42.9759C124.559 42.9701 124.214 43.0508 123.903 43.2108C123.617 43.3602 123.363 43.565 123.158 43.8132C122.953 44.0712 122.795 44.3628 122.691 44.6747C122.584 44.9872 122.529 45.3146 122.527 45.6446V45.6385Z" fill="white"></path><path d="M137.012 48.4337C136.738 48.7365 136.404 48.9791 136.03 49.1461C135.657 49.3131 135.252 49.4008 134.842 49.4036C134.362 49.4085 133.887 49.3034 133.455 49.0964C133.032 48.8972 132.654 48.6143 132.345 48.2651C132.023 47.9133 131.771 47.5046 131.6 47.0602C131.423 46.6006 131.333 46.1126 131.333 45.6205C131.332 45.1322 131.423 44.6481 131.6 44.1928C131.768 43.7472 132.021 43.3381 132.345 42.9879C132.658 42.6425 133.04 42.3655 133.467 42.1747C133.979 41.9569 134.534 41.8573 135.09 41.8833C135.647 41.9094 136.19 42.0605 136.679 42.3253C137.144 42.6071 137.522 43.0116 137.77 43.494L136.867 44.1446C136.683 43.7649 136.39 43.4482 136.024 43.2349C135.666 43.0342 135.26 42.9304 134.849 42.9337C134.518 42.9281 134.191 43.0048 133.897 43.1566C133.613 43.3039 133.363 43.5092 133.164 43.759C132.954 44.0144 132.793 44.3066 132.691 44.6205C132.587 44.9499 132.533 45.2932 132.533 45.6386C132.53 45.9979 132.592 46.355 132.715 46.6928C132.828 47.0066 132.998 47.2968 133.218 47.5482C133.425 47.8021 133.686 48.0077 133.982 48.1506C134.277 48.2965 134.603 48.3708 134.933 48.3675C135.311 48.3684 135.683 48.2796 136.018 48.1084C136.403 47.9038 136.741 47.6229 137.012 47.2831V46.4879H135.449V45.6265H138V49.3675H137.012V48.4337Z" fill="white"></path><path d="M141.442 49.3494V41.9458H142.618V49.3494H141.442Z" fill="white"></path><path d="M151.515 48.3193V49.3494H146.406V41.9458H151.424V42.9759H147.582V45.0843H150.909V46.0542H147.582V48.3193H151.515Z" fill="white"></path><path d="M159.073 43.6868C158.981 43.5934 158.88 43.5105 158.77 43.4398C158.621 43.3462 158.465 43.2655 158.303 43.1988C158.108 43.1156 157.905 43.051 157.697 43.006C157.48 42.9579 157.258 42.9337 157.036 42.9337C156.653 42.9029 156.269 42.9982 155.945 43.2048C155.829 43.2927 155.736 43.4069 155.674 43.538C155.612 43.669 155.582 43.813 155.588 43.9578C155.584 44.1142 155.624 44.2685 155.703 44.4036C155.789 44.5303 155.906 44.6338 156.042 44.7048C156.225 44.8023 156.418 44.8791 156.618 44.9337C156.848 45 157.121 45.0723 157.43 45.1446C157.776 45.2257 158.116 45.3283 158.448 45.4518C158.726 45.5468 158.988 45.6828 159.224 45.8554C159.43 46.0165 159.596 46.2226 159.709 46.4578C159.832 46.724 159.892 47.0145 159.885 47.3072C159.894 47.6435 159.819 47.9766 159.667 48.2771C159.525 48.546 159.316 48.7741 159.061 48.9398C158.797 49.1167 158.504 49.2433 158.194 49.3133C157.847 49.3977 157.49 49.4381 157.133 49.4337C156.576 49.4346 156.022 49.3492 155.491 49.1807C154.975 49.0148 154.491 48.7622 154.061 48.4338L154.594 47.4337C154.714 47.5473 154.846 47.6482 154.988 47.735C155.179 47.8568 155.382 47.9597 155.594 48.0422C155.834 48.1413 156.081 48.2219 156.333 48.2831C156.605 48.3489 156.884 48.3812 157.164 48.3795C157.536 48.4001 157.907 48.3188 158.236 48.1446C158.356 48.0694 158.454 47.9641 158.52 47.8393C158.586 47.7145 158.618 47.5746 158.612 47.4337C158.617 47.2664 158.568 47.1018 158.473 46.9639C158.362 46.8263 158.224 46.7134 158.067 46.6325C157.86 46.5296 157.645 46.445 157.424 46.3795C157.176 46.3012 156.885 46.2229 156.564 46.1386C156.235 46.0549 155.911 45.9523 155.594 45.8313C155.346 45.7389 155.114 45.6066 154.909 45.4398C154.732 45.2938 154.589 45.1108 154.491 44.9036C154.392 44.6673 154.344 44.4126 154.351 44.1566C154.344 43.8239 154.415 43.494 154.558 43.1928C154.696 42.9173 154.892 42.6748 155.133 42.4819C155.388 42.2857 155.678 42.1386 155.988 42.0482C156.337 41.9489 156.698 41.9002 157.061 41.9036C157.536 41.8976 158.009 41.9793 158.454 42.1446C158.855 42.2925 159.232 42.4953 159.576 42.747L159.073 43.6868Z" fill="white"></path><path d="M27.8788 27.3675C27.833 27.3557 27.7851 27.3557 27.7394 27.3675H27.6545C26.8727 27.5843 26.8 28.6325 26.6848 30.3795C26.6545 30.759 26.6303 31.1928 26.5879 31.6446C26.3818 34.0542 26.7515 34.8494 28.3394 36.6205C29.2121 37.5964 29.8424 38.0361 30.3697 38.0361C30.8969 38.0361 31.2788 37.5783 31.4424 36.6807C31.7212 35.1687 28.6485 28.8072 28.0303 27.5422C28.0011 27.4686 27.9477 27.407 27.8788 27.3675ZM24.9576 27.6205C24.9353 27.5766 24.9018 27.5392 24.8606 27.5121C24.8375 27.4941 24.8105 27.4817 24.7818 27.4759C24.0121 27.2229 23.3757 28.0783 22.3151 29.4458C22.0848 29.753 21.8242 30.0964 21.5394 30.4518C20.0242 32.3675 19.9091 33.2169 20.2545 35.5663C20.4485 36.8675 20.7272 37.5723 21.1697 37.8614C21.6121 38.1506 22.1818 37.988 22.8121 37.3253C23.8788 36.2169 24.8242 29.2108 25 27.8193C25.0115 27.7547 24.9986 27.6882 24.9636 27.6325L24.9576 27.6205ZM26.6666 19.0422C26.7818 20.7771 26.8545 21.8313 27.6363 22.0542C27.6643 22.0601 27.6932 22.0601 27.7212 22.0542C27.77 22.0545 27.8181 22.0421 27.8606 22.0181C27.918 21.9863 27.9645 21.938 27.9939 21.8795C28.6 20.6205 31.6848 14.259 31.406 12.747C31.2444 11.8434 30.8868 11.3916 30.3333 11.3916C29.806 11.3916 29.1757 11.8253 28.303 12.8012C26.7151 14.6084 26.3454 15.3494 26.5515 17.7771C26.6182 18.2289 26.6666 18.6747 26.6666 19.0422ZM22.3151 19.9277C23.3757 21.3193 24.0121 22.1566 24.7818 21.9036L24.8485 21.8675C24.8869 21.8373 24.9198 21.8006 24.9454 21.759C24.9815 21.7039 24.9946 21.6369 24.9818 21.5723C24.8485 20.1627 23.8848 13.1627 22.8182 12.0482C22.2121 11.3855 21.606 11.2048 21.1757 11.506C20.7454 11.8072 20.4545 12.506 20.2606 13.8012C19.9151 16.1566 20.0303 17 21.5454 18.9157C21.8182 19.2771 22.0909 19.6265 22.3212 19.9277H22.3151ZM30.7151 22.8374C30.3555 22.8374 30.004 22.9433 29.705 23.1419C29.406 23.3405 29.173 23.6228 29.0353 23.953C28.8977 24.2832 28.8617 24.6466 28.9319 24.9972C29.002 25.3477 29.1752 25.6697 29.4295 25.9225C29.6838 26.1752 30.0077 26.3474 30.3604 26.4171C30.7131 26.4868 31.0787 26.451 31.4109 26.3142C31.7431 26.1775 32.0271 25.9458 32.2269 25.6486C32.4267 25.3514 32.5333 25.002 32.5333 24.6446C32.5333 24.1663 32.3426 23.7076 32.0029 23.3688C31.6632 23.0301 31.2023 22.8389 30.7212 22.8374H30.7151ZM27.0424 24.8133C27.0426 24.5504 26.9406 24.2976 26.7576 24.1079C26.5746 23.9181 26.3248 23.8061 26.0606 23.7952L11.8121 24.0482C11.2485 24.0482 11.0485 24.253 11.0485 24.8133C11.0485 25.3735 11.2485 25.5783 11.8121 25.5783L26.0606 25.8313C26.3259 25.822 26.5771 25.7106 26.7614 25.5207C26.9457 25.3307 27.0486 25.0771 27.0485 24.8133H27.0424Z" fill="white"></path><path d="M48.8485 21.8494L28.0303 1.15661C27.2589 0.42908 26.2361 0.0234985 25.1727 0.0234985C24.1094 0.0234985 23.0865 0.42908 22.3152 1.15661L1.50303 21.8494C0.746933 22.6036 0.322388 23.625 0.322388 24.6897C0.322388 25.7545 0.746933 26.7759 1.50303 27.5301L22.3152 48.1928C23.074 48.9443 24.1015 49.3663 25.1727 49.3663C26.2439 49.3663 27.2715 48.9443 28.0303 48.1928L48.8485 27.5301C49.6046 26.7759 50.0291 25.7545 50.0291 24.6897C50.0291 23.625 49.6046 22.6036 48.8485 21.8494ZM46.5091 25.2108L25.697 45.8976C25.5552 46.0306 25.3677 46.1047 25.1727 46.1047C24.9778 46.1047 24.7902 46.0306 24.6485 45.8976L3.83637 25.2108C3.76729 25.1425 3.71246 25.0613 3.67506 24.9719C3.63765 24.8825 3.61839 24.7866 3.61839 24.6897C3.61839 24.5929 3.63765 24.497 3.67506 24.4076C3.71246 24.3182 3.76729 24.237 3.83637 24.1687L24.6485 3.48191C24.7888 3.34613 24.9769 3.27015 25.1727 3.27015C25.3686 3.27015 25.5567 3.34613 25.697 3.48191L46.5091 24.1687C46.5782 24.237 46.633 24.3182 46.6704 24.4076C46.7078 24.497 46.7271 24.5929 46.7271 24.6897C46.7271 24.7866 46.7078 24.8825 46.6704 24.9719C46.633 25.0613 46.5782 25.1425 46.5091 25.2108Z" fill="white"></path></g><defs><clipPath id="clip0_22_2785"><rect width="160" height="50" fill="white"></rect></clipPath></defs></svg>