<svg width="1440" height="1064" viewBox="0 0 1440 1064" fill="none" xmlns="http://www.w3.org/2000/svg">
<g opacity="0.4" clip-path="url(#clip0)">
<path d="M441.718 866.671L496.95 962.336L495.056 963.599L439.508 867.618L441.718 866.671Z" fill="#EEEEEE"/>
<path d="M500.422 960.126C502 962.652 501.053 965.809 498.528 967.388C496.003 968.966 492.847 968.019 491.269 965.493C489.691 962.967 490.638 959.81 493.163 958.232C495.688 956.969 499.159 957.6 500.422 960.126Z" fill="#EEEEEE"/>
<path d="M440.456 866.039H329.991V868.249H440.456V866.039Z" fill="#EEEEEE"/>
<path d="M440.771 861.935C443.611 861.935 446.136 864.145 446.136 867.302C446.136 870.46 443.927 872.67 440.771 872.67C437.93 872.67 435.406 870.46 435.406 867.302C435.406 864.145 437.615 861.935 440.771 861.935Z" fill="#EEEEEE"/>
<path d="M773.427 866.671L828.659 962.336L826.449 963.599L771.217 867.618L773.427 866.671Z" fill="#EEEEEE"/>
<path d="M832.131 960.126C833.709 962.652 832.762 965.809 830.237 967.388C827.712 968.966 824.556 968.019 822.978 965.493C821.4 962.967 822.347 959.81 824.872 958.232C827.397 956.969 830.553 957.6 832.131 960.126Z" fill="#EEEEEE"/>
<path d="M660.753 866.671L662.647 867.618L607.414 963.599L605.521 962.336L660.753 866.671Z" fill="#EEEEEE"/>
<path d="M657.281 864.461C658.86 861.935 662.016 860.988 664.541 862.566C667.065 864.145 668.012 867.302 666.434 869.828C664.856 872.354 661.7 873.301 659.175 871.722C656.65 870.144 655.703 866.986 657.281 864.461Z" fill="#EEEEEE"/>
<path d="M772.164 866.039H661.699V868.249H772.164V866.039Z" fill="#EEEEEE"/>
<path d="M772.163 861.935C775.004 861.935 777.529 864.145 777.529 867.302C777.529 870.46 775.319 872.67 772.163 872.67C769.323 872.67 766.798 870.46 766.798 867.302C766.798 864.145 769.323 861.935 772.163 861.935Z" fill="#EEEEEE"/>
<path d="M939.123 962.336L994.355 1058L992.462 1059.26L937.23 963.599L939.123 962.336Z" fill="#EEEEEE"/>
<path d="M997.827 1056.11C999.405 1058.63 998.459 1061.79 995.934 1063.37C993.409 1064.95 990.253 1064 988.675 1061.47C987.097 1058.95 988.043 1055.79 990.568 1054.21C993.093 1052.63 996.565 1053.58 997.827 1056.11Z" fill="#EEEEEE"/>
<path d="M937.86 961.705H827.396V963.915H937.86V961.705Z" fill="#EEEEEE"/>
<path d="M938.176 968.335C941.139 968.335 943.541 965.932 943.541 962.967C943.541 960.003 941.139 957.6 938.176 957.6C935.212 957.6 932.81 960.003 932.81 962.967C932.81 965.932 935.212 968.335 938.176 968.335Z" fill="#EEEEEE"/>
<path d="M1104.82 866.671L1160.05 962.336L1158.16 963.599L1102.93 867.618L1104.82 866.671Z" fill="#EEEEEE"/>
<path d="M1163.84 960.126C1165.42 962.652 1164.47 965.809 1161.95 967.388C1159.42 968.966 1156.27 968.019 1154.69 965.493C1153.11 962.967 1154.06 959.81 1156.58 958.232C1159.11 956.969 1162.26 957.6 1163.84 960.126Z" fill="#EEEEEE"/>
<path d="M939.123 962.336L994.355 1058L992.462 1059.26L937.229 963.599L939.123 962.336Z" fill="#EEEEEE"/>
<path d="M933.442 965.493C931.864 962.968 932.811 959.81 935.336 958.232C937.861 956.653 941.017 957.6 942.595 960.126C944.173 962.652 943.226 965.809 940.701 967.388C938.177 968.966 935.02 968.019 933.442 965.493Z" fill="#EEEEEE"/>
<path d="M992.462 866.671L994.355 867.618L939.123 963.599L937.23 962.336L992.462 866.671Z" fill="#EEEEEE"/>
<path d="M988.674 864.461C990.252 861.935 993.408 860.988 995.933 862.566C998.458 864.145 999.405 867.302 997.827 869.828C996.249 872.354 993.092 873.301 990.568 871.722C988.358 870.144 987.411 866.986 988.674 864.461Z" fill="#EEEEEE"/>
<path d="M1103.87 866.039H993.408V868.249H1103.87V866.039Z" fill="#EEEEEE"/>
<path d="M1103.87 861.935C1106.71 861.935 1109.24 864.145 1109.24 867.302C1109.24 870.46 1107.03 872.67 1103.87 872.67C1101.03 872.67 1098.51 870.46 1098.51 867.302C1098.51 864.145 1101.03 861.935 1103.87 861.935Z" fill="#EEEEEE"/>
<path d="M1323.85 866.671L1326.06 867.618L1270.83 963.599L1268.62 962.336L1323.85 866.671Z" fill="#EEEEEE"/>
<path d="M1320.38 864.461C1321.96 861.935 1325.12 860.988 1327.64 862.566C1330.17 864.145 1331.11 867.302 1329.54 869.828C1327.96 872.354 1324.8 873.301 1322.28 871.722C1319.75 870.144 1318.81 866.986 1320.38 864.461Z" fill="#EEEEEE"/>
<path d="M110.009 675.024L165.241 770.69L163.347 771.953L108.115 676.287L110.009 675.024Z" fill="#EEEEEE"/>
<path d="M169.029 768.795C170.607 771.321 169.66 774.478 167.135 776.057C164.61 777.636 161.454 776.689 159.876 774.163C158.298 771.637 159.245 768.48 161.77 766.901C164.295 765.322 167.451 766.27 169.029 768.795Z" fill="#EEEEEE"/>
<path d="M109.063 674.393H-1.40186V676.603H109.063V674.393Z" fill="#EEEEEE"/>
<path d="M109.062 681.023C112.025 681.023 114.428 678.62 114.428 675.656C114.428 672.692 112.025 670.289 109.062 670.289C106.099 670.289 103.697 672.692 103.697 675.656C103.697 678.62 106.099 681.023 109.062 681.023Z" fill="#EEEEEE"/>
<path d="M276.021 770.69L331.253 866.671L329.044 867.618L273.812 771.953L276.021 770.69Z" fill="#EEEEEE"/>
<path d="M334.725 864.461C336.303 866.986 335.357 870.144 332.832 871.722C330.307 873.301 327.151 872.354 325.573 869.828C323.994 867.302 324.941 864.145 327.466 862.566C329.991 860.988 333.147 861.935 334.725 864.461Z" fill="#EEEEEE"/>
<path d="M274.759 770.058H164.295V772.268H274.759V770.058Z" fill="#EEEEEE"/>
<path d="M274.759 776.688C277.722 776.688 280.124 774.285 280.124 771.321C280.124 768.357 277.722 765.954 274.759 765.954C271.795 765.954 269.393 768.357 269.393 771.321C269.393 774.285 271.795 776.688 274.759 776.688Z" fill="#EEEEEE"/>
<path d="M441.718 675.024L496.95 770.69L495.056 771.953L439.508 676.287L441.718 675.024Z" fill="#EEEEEE"/>
<path d="M500.422 768.795C502 771.321 501.053 774.478 498.528 776.057C496.003 777.636 492.847 776.689 491.269 774.163C489.691 771.637 490.638 768.48 493.163 766.901C495.688 765.322 499.159 766.27 500.422 768.795Z" fill="#EEEEEE"/>
<path d="M495.056 770.69L496.95 771.953L441.717 867.618L439.508 866.671L495.056 770.69Z" fill="#EEEEEE"/>
<path d="M445.19 869.828C443.612 872.354 440.455 873.301 437.931 871.722C435.406 870.144 434.459 866.986 436.037 864.461C437.615 861.935 440.771 860.988 443.296 862.566C445.821 864.145 446.768 867.302 445.19 869.828Z" fill="#EEEEEE"/>
<path d="M440.456 866.039H329.991V868.249H440.456V866.039Z" fill="#EEEEEE"/>
<path d="M329.991 872.354C327.15 872.354 324.625 870.144 324.625 866.987C324.625 863.829 326.835 861.619 329.991 861.619C332.831 861.619 335.356 863.829 335.356 866.987C335.356 870.144 333.147 872.354 329.991 872.354Z" fill="#EEEEEE"/>
<path d="M276.021 770.69L331.253 866.671L329.044 867.618L273.812 771.953L276.021 770.69Z" fill="#EEEEEE"/>
<path d="M270.34 773.847C268.762 771.321 269.709 768.164 272.234 766.585C274.759 765.007 277.915 765.954 279.493 768.48C281.071 771.005 280.124 774.163 277.599 775.741C275.075 777.32 271.918 776.373 270.34 773.847Z" fill="#EEEEEE"/>
<path d="M329.044 675.024L331.253 676.287L276.021 771.953L273.812 770.69L329.044 675.024Z" fill="#EEEEEE"/>
<path d="M325.573 672.814C327.151 670.289 330.307 669.341 332.832 670.92C335.357 672.499 336.303 675.656 334.725 678.182C333.147 680.708 329.991 681.655 327.466 680.076C324.941 678.813 323.994 675.34 325.573 672.814Z" fill="#EEEEEE"/>
<path d="M440.456 674.393H329.991V676.603H440.456V674.393Z" fill="#EEEEEE"/>
<path d="M440.771 670.289C443.611 670.289 446.136 672.499 446.136 675.656C446.136 678.497 443.927 681.023 440.771 681.023C437.93 681.023 435.406 678.813 435.406 675.656C435.406 672.814 437.615 670.289 440.771 670.289Z" fill="#EEEEEE"/>
<path d="M607.414 770.69L662.647 866.671L660.753 867.618L605.521 771.953L607.414 770.69Z" fill="#EEEEEE"/>
<path d="M666.434 864.461C668.012 866.986 667.065 870.144 664.541 871.722C662.016 873.301 658.86 872.354 657.281 869.828C655.703 867.302 656.65 864.145 659.175 862.566C661.7 860.988 664.856 861.935 666.434 864.461Z" fill="#EEEEEE"/>
<path d="M660.753 866.671L662.646 867.618L607.414 963.599L605.521 962.336L660.753 866.671Z" fill="#EEEEEE"/>
<path d="M610.886 965.493C609.308 968.019 606.152 968.966 603.627 967.388C601.102 965.809 600.155 962.652 601.733 960.126C603.311 957.6 606.468 956.653 608.993 958.232C611.517 959.81 612.464 962.967 610.886 965.493Z" fill="#EEEEEE"/>
<path d="M441.717 866.671L496.95 962.336L495.056 963.599L439.508 867.618L441.717 866.671Z" fill="#EEEEEE"/>
<path d="M436.037 869.828C434.459 867.302 435.406 864.145 437.931 862.566C440.455 860.988 443.612 861.935 445.19 864.461C446.768 866.986 445.821 870.144 443.296 871.722C440.771 872.985 437.615 872.354 436.037 869.828Z" fill="#EEEEEE"/>
<path d="M495.056 770.69L496.95 771.953L441.718 867.618L439.508 866.671L495.056 770.69Z" fill="#EEEEEE"/>
<path d="M491.269 768.795C492.847 766.269 496.003 765.322 498.528 766.901C501.053 768.48 502 771.637 500.422 774.163C498.844 776.688 495.688 777.636 493.163 776.057C490.638 774.478 490.007 771.321 491.269 768.795Z" fill="#EEEEEE"/>
<path d="M606.467 770.058H496.003V772.268H606.467V770.058Z" fill="#EEEEEE"/>
<path d="M606.467 776.688C609.43 776.688 611.832 774.285 611.832 771.321C611.832 768.357 609.43 765.954 606.467 765.954C603.503 765.954 601.101 768.357 601.101 771.321C601.101 774.285 603.503 776.688 606.467 776.688Z" fill="#EEEEEE"/>
<path d="M773.426 675.024L828.659 770.69L826.449 771.953L771.217 676.287L773.426 675.024Z" fill="#EEEEEE"/>
<path d="M832.131 768.796C833.709 771.321 832.762 774.479 830.237 776.057C827.712 777.636 824.556 776.689 822.978 774.163C821.4 771.637 822.347 768.48 824.872 766.901C827.397 765.323 830.553 766.27 832.131 768.796Z" fill="#EEEEEE"/>
<path d="M826.449 770.69L828.659 771.953L773.427 867.618L771.217 866.671L826.449 770.69Z" fill="#EEEEEE"/>
<path d="M776.899 869.828C775.321 872.354 772.165 873.301 769.64 871.723C767.115 870.144 766.168 866.987 767.746 864.461C769.324 861.935 772.48 860.988 775.005 862.566C777.53 864.145 778.161 867.302 776.899 869.828Z" fill="#EEEEEE"/>
<path d="M772.165 866.039H661.7V868.249H772.165V866.039Z" fill="#EEEEEE"/>
<path d="M661.7 872.354C658.859 872.354 656.334 870.144 656.334 866.987C656.334 863.829 658.544 861.619 661.7 861.619C664.54 861.619 667.065 863.829 667.065 866.987C667.065 870.144 664.54 872.354 661.7 872.354Z" fill="#EEEEEE"/>
<path d="M607.414 770.69L662.647 866.671L660.753 867.618L605.521 771.953L607.414 770.69Z" fill="#EEEEEE"/>
<path d="M602.049 773.847C600.471 771.321 601.418 768.164 603.943 766.585C606.468 765.007 609.624 765.954 611.202 768.48C612.78 771.006 611.833 774.163 609.308 775.741C606.468 777.32 603.312 776.373 602.049 773.847Z" fill="#EEEEEE"/>
<path d="M660.753 675.024L662.647 676.287L607.414 771.953L605.521 770.69L660.753 675.024Z" fill="#EEEEEE"/>
<path d="M657.281 672.814C658.86 670.289 662.016 669.341 664.541 670.92C667.065 672.499 668.012 675.656 666.434 678.182C664.856 680.708 661.7 681.655 659.175 680.076C656.65 678.813 655.703 675.34 657.281 672.814Z" fill="#EEEEEE"/>
<path d="M772.165 674.393H661.7V676.603H772.165V674.393Z" fill="#EEEEEE"/>
<path d="M772.164 670.289C775.005 670.289 777.53 672.499 777.53 675.656C777.53 678.497 775.32 681.023 772.164 681.023C769.324 681.023 766.799 678.813 766.799 675.656C767.114 672.814 769.324 670.289 772.164 670.289Z" fill="#EEEEEE"/>
<path d="M939.123 770.69L994.355 866.671L992.462 867.618L937.23 771.953L939.123 770.69Z" fill="#EEEEEE"/>
<path d="M997.827 864.461C999.405 866.986 998.459 870.144 995.934 871.722C993.409 873.301 990.253 872.354 988.675 869.828C987.097 867.302 988.043 864.145 990.568 862.566C993.093 860.988 996.565 861.935 997.827 864.461Z" fill="#EEEEEE"/>
<path d="M992.462 866.671L994.355 867.618L939.123 963.599L937.229 962.336L992.462 866.671Z" fill="#EEEEEE"/>
<path d="M942.595 965.493C941.017 968.019 937.861 968.966 935.336 967.388C932.811 965.809 931.864 962.652 933.442 960.126C935.02 957.6 938.177 956.653 940.701 958.232C943.226 959.81 944.173 962.967 942.595 965.493Z" fill="#EEEEEE"/>
<path d="M937.861 961.705H827.397V963.915H937.861V961.705Z" fill="#EEEEEE"/>
<path d="M827.396 968.335C830.36 968.335 832.762 965.932 832.762 962.967C832.762 960.003 830.36 957.6 827.396 957.6C824.433 957.6 822.031 960.003 822.031 962.967C822.031 965.932 824.433 968.335 827.396 968.335Z" fill="#EEEEEE"/>
<path d="M773.426 866.671L828.659 962.336L826.449 963.599L771.217 867.618L773.426 866.671Z" fill="#EEEEEE"/>
<path d="M767.746 869.828C766.168 867.302 767.115 864.145 769.64 862.566C772.164 860.988 775.32 861.935 776.899 864.461C778.477 866.986 777.53 870.144 775.005 871.722C772.48 872.985 769.324 872.354 767.746 869.828Z" fill="#EEEEEE"/>
<path d="M826.449 770.69L828.659 771.953L773.427 867.618L771.217 866.671L826.449 770.69Z" fill="#EEEEEE"/>
<path d="M822.978 768.795C824.556 766.269 827.712 765.322 830.237 766.901C832.762 768.48 833.709 771.637 832.131 774.163C830.553 776.688 827.397 777.636 824.872 776.057C822.347 774.478 821.4 771.321 822.978 768.795Z" fill="#EEEEEE"/>
<path d="M937.86 770.058H827.396V772.268H937.86V770.058Z" fill="#EEEEEE"/>
<path d="M938.176 776.688C941.139 776.688 943.541 774.285 943.541 771.321C943.541 768.357 941.139 765.954 938.176 765.954C935.212 765.954 932.81 768.357 932.81 771.321C932.81 774.285 935.212 776.688 938.176 776.688Z" fill="#EEEEEE"/>
<path d="M1104.82 675.024L1160.05 770.69L1158.16 771.953L1102.93 676.287L1104.82 675.024Z" fill="#EEEEEE"/>
<path d="M1163.84 768.796C1165.42 771.321 1164.47 774.479 1161.95 776.057C1159.42 777.636 1156.26 776.689 1154.69 774.163C1153.11 771.637 1154.06 768.48 1156.58 766.901C1159.11 765.323 1162.26 766.27 1163.84 768.796Z" fill="#EEEEEE"/>
<path d="M1158.16 770.69L1160.05 771.953L1104.82 867.618L1102.93 866.671L1158.16 770.69Z" fill="#EEEEEE"/>
<path d="M1108.29 869.828C1106.71 872.354 1103.56 873.301 1101.03 871.723C1098.51 870.144 1097.56 866.987 1099.14 864.461C1100.72 861.935 1103.87 860.988 1106.4 862.566C1108.92 864.145 1109.87 867.302 1108.29 869.828Z" fill="#EEEEEE"/>
<path d="M1103.87 866.039H993.409V868.249H1103.87V866.039Z" fill="#EEEEEE"/>
<path d="M993.409 872.354C990.568 872.354 988.043 870.144 988.043 866.987C988.043 863.829 990.252 861.619 993.409 861.619C996.249 861.619 998.774 863.829 998.774 866.987C998.774 870.144 996.249 872.354 993.409 872.354Z" fill="#EEEEEE"/>
<path d="M939.123 770.69L994.355 866.671L992.462 867.618L937.229 771.953L939.123 770.69Z" fill="#EEEEEE"/>
<path d="M933.442 773.847C931.864 771.321 932.811 768.164 935.336 766.585C937.861 765.007 941.017 765.954 942.595 768.48C944.173 771.006 943.226 774.163 940.701 775.741C938.177 777.32 935.02 776.373 933.442 773.847Z" fill="#EEEEEE"/>
<path d="M992.462 675.024L994.355 676.287L939.123 771.953L937.229 770.69L992.462 675.024Z" fill="#EEEEEE"/>
<path d="M988.674 672.814C990.252 670.289 993.408 669.341 995.933 670.92C998.458 672.499 999.405 675.656 997.827 678.182C996.248 680.708 993.092 681.655 990.567 680.076C988.358 678.813 987.411 675.34 988.674 672.814Z" fill="#EEEEEE"/>
<path d="M1103.87 674.393H993.409V676.603H1103.87V674.393Z" fill="#EEEEEE"/>
<path d="M1103.87 681.023C1106.84 681.023 1109.24 678.62 1109.24 675.656C1109.24 672.692 1106.84 670.289 1103.87 670.289C1100.91 670.289 1098.51 672.692 1098.51 675.656C1098.51 678.62 1100.91 681.023 1103.87 681.023Z" fill="#EEEEEE"/>
<path d="M1270.83 770.69L1326.06 866.671L1323.85 867.618L1268.62 771.953L1270.83 770.69Z" fill="#EEEEEE"/>
<path d="M1329.54 864.461C1331.11 866.986 1330.17 870.144 1327.64 871.722C1325.12 873.301 1321.96 872.354 1320.38 869.828C1318.81 867.302 1319.75 864.145 1322.28 862.566C1324.8 860.988 1327.96 861.935 1329.54 864.461Z" fill="#EEEEEE"/>
<path d="M1323.85 866.671L1326.06 867.618L1270.83 963.599L1268.62 962.336L1323.85 866.671Z" fill="#EEEEEE"/>
<path d="M1274.3 965.493C1272.73 968.019 1269.57 968.966 1267.04 967.388C1264.52 965.809 1263.57 962.652 1265.15 960.126C1266.73 957.6 1269.88 956.653 1272.41 958.232C1274.93 959.81 1275.57 962.967 1274.3 965.493Z" fill="#EEEEEE"/>
<path d="M1104.82 866.671L1160.05 962.336L1158.16 963.599L1102.93 867.618L1104.82 866.671Z" fill="#EEEEEE"/>
<path d="M1099.45 869.828C1097.88 867.302 1098.82 864.145 1101.35 862.566C1103.87 860.988 1107.03 861.935 1108.61 864.461C1110.18 866.986 1109.24 870.144 1106.71 871.722C1103.87 872.985 1100.72 872.354 1099.45 869.828Z" fill="#EEEEEE"/>
<path d="M1158.16 770.69L1160.05 771.953L1104.82 867.618L1102.93 866.671L1158.16 770.69Z" fill="#EEEEEE"/>
<path d="M1154.69 768.795C1156.27 766.269 1159.42 765.322 1161.95 766.901C1164.47 768.48 1165.42 771.637 1163.84 774.163C1162.26 776.688 1159.11 777.636 1156.58 776.057C1154.06 774.478 1153.11 771.321 1154.69 768.795Z" fill="#EEEEEE"/>
<path d="M1269.57 770.058H1159.1V772.268H1269.57V770.058Z" fill="#EEEEEE"/>
<path d="M1269.57 765.954C1272.41 765.954 1274.93 768.164 1274.93 771.321C1274.93 774.478 1272.72 776.688 1269.57 776.688C1266.41 776.688 1264.2 774.478 1264.2 771.321C1264.2 768.164 1266.73 765.954 1269.57 765.954Z" fill="#EEEEEE"/>
<path d="M1324.8 872.354C1321.96 872.354 1319.44 870.144 1319.44 866.987C1319.44 863.829 1321.64 861.619 1324.8 861.619C1327.64 861.619 1330.17 863.829 1330.17 866.987C1330.17 870.144 1327.96 872.354 1324.8 872.354Z" fill="#EEEEEE"/>
<path d="M1270.83 770.69L1326.06 866.671L1323.85 867.618L1268.62 771.953L1270.83 770.69Z" fill="#EEEEEE"/>
<path d="M1265.15 773.847C1263.57 771.321 1264.52 768.164 1267.04 766.585C1269.57 765.007 1272.73 765.954 1274.3 768.48C1275.88 771.006 1274.93 774.163 1272.41 775.741C1269.88 777.32 1266.73 776.373 1265.15 773.847Z" fill="#EEEEEE"/>
<path d="M1323.85 675.024L1326.06 676.287L1270.83 771.953L1268.62 770.69L1323.85 675.024Z" fill="#EEEEEE"/>
<path d="M1320.38 672.814C1321.96 670.289 1325.12 669.341 1327.64 670.92C1330.17 672.499 1331.11 675.656 1329.54 678.182C1327.96 680.708 1324.8 681.655 1322.28 680.076C1319.75 678.813 1318.8 675.34 1320.38 672.814Z" fill="#EEEEEE"/>
<path d="M1435.27 674.393H1324.8V676.603H1435.27V674.393Z" fill="#EEEEEE"/>
<path d="M1440 672.814C1439.05 671.236 1437.47 670.289 1435.58 670.289C1432.74 670.289 1430.22 672.499 1430.22 675.656C1430.22 678.497 1432.43 681.023 1435.58 681.023C1437.47 681.023 1439.05 680.076 1440 678.497V672.814Z" fill="#EEEEEE"/>
<path d="M110.009 483.378L165.241 579.359L163.347 580.306L108.115 484.641L110.009 483.378Z" fill="#EEEEEE"/>
<path d="M169.029 577.149C170.607 579.675 169.66 582.832 167.135 584.411C164.61 585.989 161.454 585.042 159.876 582.516C158.298 579.991 159.245 576.833 161.77 575.255C164.295 573.676 167.451 574.623 169.029 577.149Z" fill="#EEEEEE"/>
<path d="M163.347 579.359L165.241 580.306L110.009 676.287L108.115 675.024L163.347 579.359Z" fill="#EEEEEE"/>
<path d="M113.481 678.182C111.903 680.708 108.746 681.655 106.222 680.076C103.697 678.497 102.75 675.34 104.328 672.814C105.906 670.289 109.062 669.341 111.587 670.92C114.112 672.499 115.059 675.656 113.481 678.182Z" fill="#EEEEEE"/>
<path d="M109.063 674.393H-1.40186V676.603H109.063V674.393Z" fill="#EEEEEE"/>
<path d="M-1.40216 680.707C-4.24268 680.707 -6.76758 678.497 -6.76758 675.34C-6.76758 672.498 -4.55829 669.973 -1.40216 669.973C1.43835 669.973 3.96325 672.183 3.96325 675.34C3.64763 678.497 1.43835 680.707 -1.40216 680.707Z" fill="#EEEEEE"/>
<path d="M-6.1366 481.484C-4.55853 478.958 -1.40241 478.011 1.12249 479.589C3.6474 481.168 4.59424 484.325 3.01617 486.851C1.43811 489.377 -1.71802 490.324 -4.24292 488.745C-6.76783 487.167 -7.39905 484.009 -6.1366 481.484Z" fill="#EEEEEE"/>
<path d="M109.063 483.062H-1.40186V485.272H109.063V483.062Z" fill="#EEEEEE"/>
<path d="M109.062 489.377C112.025 489.377 114.428 486.974 114.428 484.009C114.428 481.045 112.025 478.642 109.062 478.642C106.099 478.642 103.697 481.045 103.697 484.009C103.697 486.974 106.099 489.377 109.062 489.377Z" fill="#EEEEEE"/>
<path d="M276.021 579.359L331.253 675.024L329.044 676.287L273.812 580.306L276.021 579.359Z" fill="#EEEEEE"/>
<path d="M334.725 672.814C336.303 675.34 335.357 678.497 332.832 680.076C330.307 681.655 327.151 680.708 325.573 678.182C323.994 675.656 324.941 672.499 327.466 670.92C329.991 669.657 333.147 670.289 334.725 672.814Z" fill="#EEEEEE"/>
<path d="M329.044 675.024L331.253 676.287L276.021 771.953L273.812 770.69L329.044 675.024Z" fill="#EEEEEE"/>
<path d="M279.493 773.847C277.915 776.373 274.759 777.32 272.234 775.741C269.709 774.163 268.762 771.006 270.34 768.48C271.918 765.954 275.075 765.007 277.599 766.585C280.124 768.164 280.756 771.321 279.493 773.847Z" fill="#EEEEEE"/>
<path d="M274.759 770.058H164.295V772.268H274.759V770.058Z" fill="#EEEEEE"/>
<path d="M164.294 776.688C167.258 776.688 169.66 774.285 169.66 771.321C169.66 768.357 167.258 765.954 164.294 765.954C161.331 765.954 158.929 768.357 158.929 771.321C158.929 774.285 161.331 776.688 164.294 776.688Z" fill="#EEEEEE"/>
<path d="M110.009 675.024L165.241 770.69L163.347 771.953L108.115 676.287L110.009 675.024Z" fill="#EEEEEE"/>
<path d="M104.644 678.182C103.066 675.656 104.013 672.499 106.537 670.92C109.062 669.341 112.219 670.289 113.797 672.814C115.375 675.34 114.428 678.497 111.903 680.076C109.062 681.655 105.906 680.708 104.644 678.182Z" fill="#EEEEEE"/>
<path d="M163.347 579.359L165.241 580.306L110.009 676.287L108.115 675.024L163.347 579.359Z" fill="#EEEEEE"/>
<path d="M159.876 577.149C161.454 574.623 164.61 573.676 167.135 575.255C169.66 576.833 170.607 579.991 169.029 582.516C167.451 585.042 164.295 585.989 161.77 584.411C159.245 582.832 158.298 579.675 159.876 577.149Z" fill="#EEEEEE"/>
<path d="M274.759 578.728H164.295V580.938H274.759V578.728Z" fill="#EEEEEE"/>
<path d="M274.759 585.358C277.722 585.358 280.124 582.955 280.124 579.991C280.124 577.026 277.722 574.623 274.759 574.623C271.795 574.623 269.393 577.026 269.393 579.991C269.393 582.955 271.795 585.358 274.759 585.358Z" fill="#EEEEEE"/>
<path d="M441.718 483.378L496.95 579.359L495.056 580.306L439.508 484.641L441.718 483.378Z" fill="#EEEEEE"/>
<path d="M500.422 577.149C502 579.675 501.053 582.832 498.528 584.411C496.003 585.989 492.847 585.042 491.269 582.516C489.691 579.991 490.638 576.833 493.163 575.255C495.688 573.676 499.159 574.623 500.422 577.149Z" fill="#EEEEEE"/>
<path d="M495.056 579.359L496.95 580.306L441.718 676.287L439.508 675.024L495.056 579.359Z" fill="#EEEEEE"/>
<path d="M445.19 678.182C443.612 680.708 440.455 681.655 437.931 680.076C435.406 678.498 434.459 675.34 436.037 672.815C437.615 670.289 440.771 669.342 443.296 670.92C445.821 672.499 446.768 675.656 445.19 678.182Z" fill="#EEEEEE"/>
<path d="M440.456 674.393H329.991V676.603H440.456V674.393Z" fill="#EEEEEE"/>
<path d="M329.991 681.023C332.954 681.023 335.356 678.62 335.356 675.656C335.356 672.691 332.954 670.288 329.991 670.288C327.028 670.288 324.625 672.691 324.625 675.656C324.625 678.62 327.028 681.023 329.991 681.023Z" fill="#EEEEEE"/>
<path d="M276.021 579.359L331.253 675.024L329.044 676.287L273.812 580.306L276.021 579.359Z" fill="#EEEEEE"/>
<path d="M270.34 582.516C268.762 579.991 269.709 576.833 272.234 575.255C274.759 573.676 277.915 574.623 279.493 577.149C281.071 579.675 280.124 582.832 277.599 584.411C275.075 585.989 271.918 585.042 270.34 582.516Z" fill="#EEEEEE"/>
<path d="M329.044 483.378L331.253 484.641L276.021 580.306L273.812 579.359L329.044 483.378Z" fill="#EEEEEE"/>
<path d="M325.573 481.484C327.151 478.958 330.307 478.011 332.832 479.589C335.357 481.168 336.303 484.325 334.725 486.851C333.147 489.377 329.991 490.324 327.466 488.745C324.941 487.167 323.994 484.009 325.573 481.484Z" fill="#EEEEEE"/>
<path d="M440.456 483.062H329.991V485.273H440.456V483.062Z" fill="#EEEEEE"/>
<path d="M440.771 478.958C443.611 478.958 446.136 481.168 446.136 484.325C446.136 487.483 443.927 489.693 440.771 489.693C437.93 489.693 435.406 487.483 435.406 484.325C435.406 481.168 437.615 478.958 440.771 478.958Z" fill="#EEEEEE"/>
<path d="M607.414 579.359L662.646 675.024L660.753 676.287L605.521 580.306L607.414 579.359Z" fill="#EEEEEE"/>
<path d="M666.434 672.814C668.012 675.34 667.065 678.497 664.54 680.076C662.016 681.655 658.859 680.708 657.281 678.182C655.703 675.656 656.65 672.499 659.175 670.92C661.7 669.657 664.856 670.289 666.434 672.814Z" fill="#EEEEEE"/>
<path d="M660.753 675.024L662.647 676.287L607.414 771.953L605.521 770.69L660.753 675.024Z" fill="#EEEEEE"/>
<path d="M610.886 773.847C609.308 776.373 606.152 777.32 603.627 775.741C601.102 774.163 600.155 771.006 601.733 768.48C603.311 765.954 606.468 765.007 608.993 766.585C611.517 768.164 612.464 771.321 610.886 773.847Z" fill="#EEEEEE"/>
<path d="M606.468 770.058H496.004V772.268H606.468V770.058Z" fill="#EEEEEE"/>
<path d="M496.003 776.688C493.163 776.688 490.638 774.478 490.638 771.321C490.638 768.164 492.847 765.954 496.003 765.954C498.844 765.954 501.369 768.164 501.369 771.321C501.369 774.478 498.844 776.688 496.003 776.688Z" fill="#EEEEEE"/>
<path d="M441.717 675.025L496.95 770.69L495.056 771.953L439.508 676.287L441.717 675.025Z" fill="#EEEEEE"/>
<path d="M436.037 678.182C434.459 675.656 435.406 672.499 437.931 670.92C440.455 669.341 443.612 670.289 445.19 672.814C446.768 675.34 445.821 678.497 443.296 680.076C440.771 681.655 437.615 680.708 436.037 678.182Z" fill="#EEEEEE"/>
<path d="M495.056 579.359L496.95 580.306L441.717 676.287L439.508 675.024L495.056 579.359Z" fill="#EEEEEE"/>
<path d="M491.269 577.149C492.847 574.623 496.003 573.676 498.528 575.255C501.053 576.833 502 579.991 500.422 582.516C498.844 585.042 495.687 585.989 493.163 584.411C490.638 582.832 490.006 579.675 491.269 577.149Z" fill="#EEEEEE"/>
<path d="M606.468 578.728H496.004V580.938H606.468V578.728Z" fill="#EEEEEE"/>
<path d="M606.468 585.358C609.431 585.358 611.833 582.955 611.833 579.991C611.833 577.026 609.431 574.623 606.468 574.623C603.504 574.623 601.102 577.026 601.102 579.991C601.102 582.955 603.504 585.358 606.468 585.358Z" fill="#EEEEEE"/>
<path d="M773.426 483.378L828.659 579.359L826.449 580.306L771.217 484.641L773.426 483.378Z" fill="#EEEEEE"/>
<path d="M832.131 577.149C833.709 579.675 832.762 582.832 830.237 584.411C827.712 585.989 824.556 585.042 822.978 582.516C821.4 579.991 822.347 576.833 824.872 575.255C827.397 573.676 830.553 574.623 832.131 577.149Z" fill="#EEEEEE"/>
<path d="M826.449 579.359L828.659 580.306L773.427 676.287L771.217 675.024L826.449 579.359Z" fill="#EEEEEE"/>
<path d="M776.899 678.182C775.321 680.708 772.165 681.655 769.64 680.076C767.115 678.498 766.168 675.34 767.746 672.815C769.324 670.289 772.48 669.342 775.005 670.92C777.53 672.499 778.161 675.656 776.899 678.182Z" fill="#EEEEEE"/>
<path d="M772.165 674.393H661.7V676.603H772.165V674.393Z" fill="#EEEEEE"/>
<path d="M661.7 681.023C664.663 681.023 667.065 678.62 667.065 675.656C667.065 672.691 664.663 670.288 661.7 670.288C658.737 670.288 656.334 672.691 656.334 675.656C656.334 678.62 658.737 681.023 661.7 681.023Z" fill="#EEEEEE"/>
<path d="M607.414 579.359L662.647 675.024L660.753 676.287L605.521 580.306L607.414 579.359Z" fill="#EEEEEE"/>
<path d="M602.049 582.516C600.471 579.991 601.418 576.833 603.943 575.255C606.468 573.676 609.624 574.623 611.202 577.149C612.78 579.675 611.833 582.832 609.308 584.411C606.468 585.989 603.312 585.042 602.049 582.516Z" fill="#EEEEEE"/>
<path d="M660.753 483.378L662.647 484.641L607.414 580.306L605.521 579.359L660.753 483.378Z" fill="#EEEEEE"/>
<path d="M657.281 481.484C658.86 478.958 662.016 478.011 664.541 479.589C667.065 481.168 668.012 484.325 666.434 486.851C664.856 489.377 661.7 490.324 659.175 488.745C656.65 487.167 655.703 484.009 657.281 481.484Z" fill="#EEEEEE"/>
<path d="M772.165 483.062H661.7V485.273H772.165V483.062Z" fill="#EEEEEE"/>
<path d="M772.164 478.958C775.005 478.958 777.53 481.168 777.53 484.325C777.53 487.483 775.32 489.693 772.164 489.693C769.324 489.693 766.799 487.483 766.799 484.325C766.799 481.168 769.324 478.958 772.164 478.958Z" fill="#EEEEEE"/>
<path d="M939.123 579.359L994.355 675.024L992.462 676.287L937.229 580.306L939.123 579.359Z" fill="#EEEEEE"/>
<path d="M997.827 672.814C999.405 675.34 998.459 678.497 995.934 680.076C993.409 681.655 990.253 680.708 988.675 678.182C987.097 675.656 988.043 672.499 990.568 670.92C993.093 669.657 996.565 670.289 997.827 672.814Z" fill="#EEEEEE"/>
<path d="M992.462 675.024L994.355 676.287L939.123 771.953L937.23 770.69L992.462 675.024Z" fill="#EEEEEE"/>
<path d="M942.595 773.847C941.017 776.373 937.861 777.32 935.336 775.741C932.811 774.163 931.864 771.006 933.442 768.48C935.02 765.954 938.177 765.007 940.701 766.585C943.226 768.164 944.173 771.321 942.595 773.847Z" fill="#EEEEEE"/>
<path d="M937.861 770.058H827.397V772.268H937.861V770.058Z" fill="#EEEEEE"/>
<path d="M827.396 776.688C830.359 776.688 832.762 774.285 832.762 771.321C832.762 768.357 830.359 765.954 827.396 765.954C824.433 765.954 822.031 768.357 822.031 771.321C822.031 774.285 824.433 776.688 827.396 776.688Z" fill="#EEEEEE"/>
<path d="M773.426 675.025L828.659 770.69L826.449 771.953L771.217 676.287L773.426 675.025Z" fill="#EEEEEE"/>
<path d="M767.746 678.182C766.168 675.656 767.115 672.499 769.64 670.92C772.164 669.341 775.32 670.289 776.899 672.814C778.477 675.34 777.53 678.497 775.005 680.076C772.48 681.655 769.324 680.708 767.746 678.182Z" fill="#EEEEEE"/>
<path d="M826.449 579.359L828.659 580.306L773.426 676.287L771.217 675.024L826.449 579.359Z" fill="#EEEEEE"/>
<path d="M822.978 577.149C824.556 574.623 827.712 573.676 830.237 575.255C832.762 576.833 833.709 579.991 832.131 582.516C830.553 585.042 827.397 585.989 824.872 584.411C822.347 582.832 821.4 579.675 822.978 577.149Z" fill="#EEEEEE"/>
<path d="M937.861 578.728H827.397V580.938H937.861V578.728Z" fill="#EEEEEE"/>
<path d="M938.176 585.358C941.14 585.358 943.542 582.955 943.542 579.991C943.542 577.026 941.14 574.623 938.176 574.623C935.213 574.623 932.811 577.026 932.811 579.991C932.811 582.955 935.213 585.358 938.176 585.358Z" fill="#EEEEEE"/>
<path d="M1104.82 483.378L1160.05 579.359L1158.16 580.306L1102.93 484.641L1104.82 483.378Z" fill="#EEEEEE"/>
<path d="M1163.84 577.149C1165.42 579.675 1164.47 582.832 1161.95 584.411C1159.42 585.989 1156.26 585.042 1154.69 582.516C1153.11 579.991 1154.06 576.833 1156.58 575.255C1159.11 573.676 1162.26 574.623 1163.84 577.149Z" fill="#EEEEEE"/>
<path d="M1158.16 579.359L1160.05 580.306L1104.82 676.287L1102.93 675.024L1158.16 579.359Z" fill="#EEEEEE"/>
<path d="M1108.29 678.182C1106.71 680.707 1103.56 681.655 1101.03 680.076C1098.51 678.497 1097.56 675.34 1099.14 672.814C1100.72 670.289 1103.87 669.341 1106.4 670.92C1108.92 672.499 1109.87 675.656 1108.29 678.182Z" fill="#EEEEEE"/>
<path d="M1103.87 674.393H993.409V676.603H1103.87V674.393Z" fill="#EEEEEE"/>
<path d="M993.409 680.707C990.568 680.707 988.043 678.497 988.043 675.34C988.043 672.498 990.252 669.973 993.409 669.973C996.249 669.973 998.774 672.183 998.774 675.34C998.774 678.497 996.249 680.707 993.409 680.707Z" fill="#EEEEEE"/>
<path d="M939.123 579.359L994.355 675.024L992.462 676.287L937.229 580.306L939.123 579.359Z" fill="#EEEEEE"/>
<path d="M933.442 582.516C931.864 579.991 932.811 576.833 935.336 575.255C937.861 573.676 941.017 574.623 942.595 577.149C944.173 579.675 943.226 582.832 940.701 584.411C938.177 585.989 935.02 585.042 933.442 582.516Z" fill="#EEEEEE"/>
<path d="M992.462 483.378L994.355 484.641L939.123 580.306L937.229 579.359L992.462 483.378Z" fill="#EEEEEE"/>
<path d="M988.674 481.484C990.252 478.958 993.408 478.011 995.933 479.589C998.458 481.168 999.405 484.325 997.827 486.851C996.248 489.377 993.092 490.324 990.567 488.745C988.358 487.167 987.411 484.009 988.674 481.484Z" fill="#EEEEEE"/>
<path d="M1103.87 483.062H993.409V485.272H1103.87V483.062Z" fill="#EEEEEE"/>
<path d="M1103.87 489.377C1106.84 489.377 1109.24 486.974 1109.24 484.009C1109.24 481.045 1106.84 478.642 1103.87 478.642C1100.91 478.642 1098.51 481.045 1098.51 484.009C1098.51 486.974 1100.91 489.377 1103.87 489.377Z" fill="#EEEEEE"/>
<path d="M1270.83 579.359L1326.06 675.024L1323.85 676.287L1268.62 580.306L1270.83 579.359Z" fill="#EEEEEE"/>
<path d="M1329.54 672.814C1331.11 675.34 1330.17 678.497 1327.64 680.076C1325.12 681.655 1321.96 680.708 1320.38 678.182C1318.8 675.656 1319.75 672.499 1322.28 670.92C1324.8 669.657 1327.96 670.289 1329.54 672.814Z" fill="#EEEEEE"/>
<path d="M1323.85 675.024L1326.06 676.287L1270.83 771.953L1268.62 770.69L1323.85 675.024Z" fill="#EEEEEE"/>
<path d="M1274.3 773.847C1272.73 776.373 1269.57 777.32 1267.04 775.741C1264.52 774.163 1263.57 771.006 1265.15 768.48C1266.73 765.954 1269.88 765.007 1272.41 766.585C1274.93 768.164 1275.57 771.321 1274.3 773.847Z" fill="#EEEEEE"/>
<path d="M1269.57 770.058H1159.1V772.268H1269.57V770.058Z" fill="#EEEEEE"/>
<path d="M1159.1 776.688C1162.07 776.688 1164.47 774.285 1164.47 771.321C1164.47 768.357 1162.07 765.954 1159.1 765.954C1156.14 765.954 1153.74 768.357 1153.74 771.321C1153.74 774.285 1156.14 776.688 1159.1 776.688Z" fill="#EEEEEE"/>
<path d="M1104.82 675.025L1160.05 770.69L1158.16 771.953L1102.93 676.287L1104.82 675.025Z" fill="#EEEEEE"/>
<path d="M1099.45 678.182C1097.88 675.656 1098.82 672.499 1101.35 670.92C1103.87 669.341 1107.03 670.289 1108.61 672.814C1110.18 675.34 1109.24 678.497 1106.71 680.076C1103.87 681.655 1100.72 680.708 1099.45 678.182Z" fill="#EEEEEE"/>
<path d="M1158.16 579.359L1160.05 580.306L1104.82 676.287L1102.93 675.024L1158.16 579.359Z" fill="#EEEEEE"/>
<path d="M1154.69 577.149C1156.26 574.623 1159.42 573.676 1161.95 575.255C1164.47 576.833 1165.42 579.991 1163.84 582.516C1162.26 585.042 1159.1 585.989 1156.58 584.411C1154.05 582.832 1153.11 579.675 1154.69 577.149Z" fill="#EEEEEE"/>
<path d="M1269.57 578.728H1159.1V580.938H1269.57V578.728Z" fill="#EEEEEE"/>
<path d="M1269.57 574.623C1272.41 574.623 1274.93 576.833 1274.93 579.991C1274.93 583.148 1272.72 585.358 1269.57 585.358C1266.41 585.358 1264.2 583.148 1264.2 579.991C1264.2 576.833 1266.73 574.623 1269.57 574.623Z" fill="#EEEEEE"/>
<path d="M1440 672.814C1439.68 672.183 1439.05 671.551 1438.11 670.92C1435.58 669.341 1432.43 670.288 1430.85 672.814C1429.27 675.34 1430.22 678.497 1432.74 680.076C1435.27 681.655 1438.42 680.707 1439.68 678.182V672.814H1440Z" fill="#EEEEEE"/>
<path d="M1435.27 674.393H1324.8V676.603H1435.27V674.393Z" fill="#EEEEEE"/>
<path d="M1324.8 680.707C1321.96 680.707 1319.44 678.497 1319.44 675.34C1319.44 672.498 1321.64 669.973 1324.8 669.973C1327.64 669.973 1330.17 672.183 1330.17 675.34C1330.17 678.497 1327.96 680.707 1324.8 680.707Z" fill="#EEEEEE"/>
<path d="M1270.83 579.359L1326.06 675.024L1323.85 676.287L1268.62 580.306L1270.83 579.359Z" fill="#EEEEEE"/>
<path d="M1265.15 582.516C1263.57 579.991 1264.52 576.833 1267.04 575.255C1269.57 573.676 1272.73 574.623 1274.3 577.149C1275.88 579.675 1274.93 582.832 1272.41 584.411C1269.88 585.989 1266.73 585.042 1265.15 582.516Z" fill="#EEEEEE"/>
<path d="M1323.85 483.378L1326.06 484.641L1270.83 580.306L1268.62 579.359L1323.85 483.378Z" fill="#EEEEEE"/>
<path d="M1320.38 481.484C1321.96 478.958 1325.12 478.011 1327.64 479.589C1330.17 481.168 1331.11 484.325 1329.54 486.851C1327.96 489.377 1324.8 490.324 1322.28 488.745C1319.75 487.167 1318.8 484.009 1320.38 481.484Z" fill="#EEEEEE"/>
<path d="M1435.27 483.062H1324.8V485.272H1435.27V483.062Z" fill="#EEEEEE"/>
<path d="M1440 481.168C1439.05 479.589 1437.47 478.642 1435.58 478.642C1432.74 478.642 1430.22 480.852 1430.22 484.009C1430.22 487.167 1432.43 489.377 1435.58 489.377C1437.47 489.377 1439.05 488.43 1440 486.851V481.168Z" fill="#EEEEEE"/>
<path d="M1440 672.814C1438.42 670.289 1435.27 669.657 1433.06 670.92C1430.53 672.499 1429.58 675.656 1431.16 678.182C1432.74 680.708 1435.9 681.655 1438.42 680.076C1439.05 679.76 1439.68 679.129 1440.32 678.182V672.814H1440Z" fill="#EEEEEE"/>
<path d="M3.0163 481.484C4.59437 484.01 3.64753 487.167 1.12263 488.746C-1.40227 490.324 -4.5584 489.377 -6.13646 486.851C-7.71452 484.325 -6.76769 481.168 -4.24279 479.59C-1.71789 478.011 1.75385 478.958 3.0163 481.484Z" fill="#EEEEEE"/>
<path d="M110.009 292.047L165.241 387.713L163.347 388.976L108.115 292.995L110.009 292.047Z" fill="#EEEEEE"/>
<path d="M169.029 385.818C170.607 388.344 169.66 391.502 167.135 393.08C164.61 394.659 161.454 393.712 159.876 391.186C158.298 388.66 159.245 385.503 161.77 383.924C164.295 382.345 167.451 383.293 169.029 385.818Z" fill="#EEEEEE"/>
<path d="M163.347 387.713L165.241 388.976L110.009 484.641L108.115 483.378L163.347 387.713Z" fill="#EEEEEE"/>
<path d="M113.481 486.851C111.903 489.377 108.746 490.324 106.222 488.746C103.697 487.167 102.75 484.01 104.328 481.484C105.906 478.958 109.062 478.011 111.587 479.59C114.112 480.852 115.059 484.325 113.481 486.851Z" fill="#EEEEEE"/>
<path d="M109.063 483.062H-1.40186V485.272H109.063V483.062Z" fill="#EEEEEE"/>
<path d="M-1.40216 489.377C-4.24268 489.377 -6.76758 487.167 -6.76758 484.009C-6.76758 480.852 -4.55829 478.642 -1.40216 478.642C1.43835 478.642 3.96325 480.852 3.96325 484.009C3.96325 487.167 1.43835 489.377 -1.40216 489.377Z" fill="#EEEEEE"/>
<path d="M109.063 291.416H-1.40186V293.626H109.063V291.416Z" fill="#EEEEEE"/>
<path d="M109.062 298.046C112.025 298.046 114.428 295.643 114.428 292.679C114.428 289.715 112.025 287.312 109.062 287.312C106.099 287.312 103.697 289.715 103.697 292.679C103.697 295.643 106.099 298.046 109.062 298.046Z" fill="#EEEEEE"/>
<path d="M276.021 387.713L331.253 483.378L329.044 484.641L273.812 388.976L276.021 387.713Z" fill="#EEEEEE"/>
<path d="M334.725 481.484C336.303 484.01 335.356 487.167 332.832 488.746C330.307 490.324 327.151 489.377 325.573 486.851C323.994 484.326 324.941 481.168 327.466 479.59C329.991 478.011 333.147 478.958 334.725 481.484Z" fill="#EEEEEE"/>
<path d="M329.044 483.378L331.253 484.641L276.021 580.307L273.812 579.359L329.044 483.378Z" fill="#EEEEEE"/>
<path d="M279.493 582.517C277.915 585.043 274.759 585.99 272.234 584.411C269.709 582.833 268.762 579.675 270.34 577.149C271.918 574.624 275.075 573.676 277.599 575.255C280.124 576.834 280.756 579.991 279.493 582.517Z" fill="#EEEEEE"/>
<path d="M274.759 578.728H164.295V580.938H274.759V578.728Z" fill="#EEEEEE"/>
<path d="M164.294 585.358C167.258 585.358 169.66 582.955 169.66 579.991C169.66 577.026 167.258 574.623 164.294 574.623C161.331 574.623 158.929 577.026 158.929 579.991C158.929 582.955 161.331 585.358 164.294 585.358Z" fill="#EEEEEE"/>
<path d="M110.009 483.378L165.241 579.359L163.347 580.307L108.115 484.641L110.009 483.378Z" fill="#EEEEEE"/>
<path d="M104.644 486.851C103.066 484.326 104.013 481.168 106.537 479.59C109.062 478.011 112.219 478.958 113.797 481.484C115.375 484.01 114.428 487.167 111.903 488.746C109.062 490.009 105.906 489.377 104.644 486.851Z" fill="#EEEEEE"/>
<path d="M163.347 387.713L165.241 388.976L110.009 484.641L108.115 483.378L163.347 387.713Z" fill="#EEEEEE"/>
<path d="M159.876 385.819C161.454 383.293 164.61 382.346 167.135 383.924C169.66 385.503 170.607 388.66 169.029 391.186C167.451 393.712 164.295 394.659 161.77 393.08C159.245 391.502 158.298 388.344 159.876 385.819Z" fill="#EEEEEE"/>
<path d="M274.759 387.082H164.295V389.292H274.759V387.082Z" fill="#EEEEEE"/>
<path d="M274.759 382.977C277.599 382.977 280.124 385.187 280.124 388.344C280.124 391.186 277.915 393.712 274.759 393.712C271.918 393.712 269.393 391.502 269.393 388.344C269.709 385.503 271.918 382.977 274.759 382.977Z" fill="#EEEEEE"/>
<path d="M441.718 292.047L496.95 387.713L495.056 388.976L439.508 292.995L441.718 292.047Z" fill="#EEEEEE"/>
<path d="M500.422 385.818C502 388.344 501.053 391.502 498.528 393.08C496.003 394.659 492.847 393.712 491.269 391.186C489.691 388.66 490.638 385.503 493.163 383.924C495.688 382.345 499.159 383.293 500.422 385.818Z" fill="#EEEEEE"/>
<path d="M495.056 387.713L496.95 388.976L441.718 484.641L439.508 483.378L495.056 387.713Z" fill="#EEEEEE"/>
<path d="M445.19 486.851C443.612 489.377 440.455 490.324 437.931 488.746C435.406 487.167 434.459 484.01 436.037 481.484C437.615 478.958 440.771 478.011 443.296 479.59C445.821 480.852 446.768 484.325 445.19 486.851Z" fill="#EEEEEE"/>
<path d="M440.456 483.062H329.991V485.272H440.456V483.062Z" fill="#EEEEEE"/>
<path d="M329.991 489.377C332.954 489.377 335.356 486.974 335.356 484.009C335.356 481.045 332.954 478.642 329.991 478.642C327.028 478.642 324.625 481.045 324.625 484.009C324.625 486.974 327.028 489.377 329.991 489.377Z" fill="#EEEEEE"/>
<path d="M276.021 387.713L331.253 483.378L329.044 484.641L273.812 388.976L276.021 387.713Z" fill="#EEEEEE"/>
<path d="M270.34 390.87C268.762 388.344 269.709 385.187 272.234 383.608C274.759 382.03 277.915 382.977 279.493 385.503C281.071 388.029 280.124 391.186 277.599 392.765C275.075 394.343 271.918 393.396 270.34 390.87Z" fill="#EEEEEE"/>
<path d="M329.044 292.047L331.253 292.995L276.021 388.976L273.812 387.713L329.044 292.047Z" fill="#EEEEEE"/>
<path d="M325.573 289.837C327.151 287.312 330.307 286.364 332.832 287.943C335.357 289.522 336.303 292.679 334.725 295.205C333.147 297.731 329.991 298.678 327.466 297.099C324.941 295.521 323.994 292.363 325.573 289.837Z" fill="#EEEEEE"/>
<path d="M440.456 291.416H329.991V293.626H440.456V291.416Z" fill="#EEEEEE"/>
<path d="M440.771 287.312C443.611 287.312 446.136 289.522 446.136 292.679C446.136 295.521 443.927 298.046 440.771 298.046C437.93 298.046 435.406 295.836 435.406 292.679C435.406 289.522 437.615 287.312 440.771 287.312Z" fill="#EEEEEE"/>
<path d="M607.414 387.713L662.646 483.378L660.753 484.641L605.521 388.976L607.414 387.713Z" fill="#EEEEEE"/>
<path d="M666.434 481.484C668.012 484.01 667.065 487.167 664.54 488.746C662.016 490.324 658.859 489.377 657.281 486.851C655.703 484.326 656.65 481.168 659.175 479.59C661.7 478.011 664.856 478.958 666.434 481.484Z" fill="#EEEEEE"/>
<path d="M660.753 483.378L662.647 484.641L607.414 580.307L605.521 579.359L660.753 483.378Z" fill="#EEEEEE"/>
<path d="M610.886 582.517C609.308 585.043 606.152 585.99 603.627 584.411C601.102 582.833 600.155 579.675 601.733 577.149C603.311 574.624 606.468 573.676 608.993 575.255C611.517 576.834 612.464 579.991 610.886 582.517Z" fill="#EEEEEE"/>
<path d="M606.468 578.728H496.004V580.938H606.468V578.728Z" fill="#EEEEEE"/>
<path d="M496.003 585.042C493.163 585.042 490.638 582.832 490.638 579.675C490.638 576.518 492.847 574.307 496.003 574.307C498.844 574.307 501.369 576.518 501.369 579.675C501.369 582.832 498.844 585.042 496.003 585.042Z" fill="#EEEEEE"/>
<path d="M441.717 483.378L496.95 579.359L495.056 580.307L439.508 484.641L441.717 483.378Z" fill="#EEEEEE"/>
<path d="M436.037 486.851C434.459 484.326 435.406 481.168 437.931 479.59C440.455 478.011 443.612 478.958 445.19 481.484C446.768 484.01 445.821 487.167 443.296 488.746C440.771 490.009 437.615 489.377 436.037 486.851Z" fill="#EEEEEE"/>
<path d="M495.056 387.713L496.95 388.976L441.717 484.641L439.508 483.378L495.056 387.713Z" fill="#EEEEEE"/>
<path d="M491.269 385.819C492.847 383.293 496.003 382.346 498.528 383.924C501.053 385.503 502 388.66 500.422 391.186C498.844 393.712 495.687 394.659 493.163 393.08C490.638 391.502 490.006 388.344 491.269 385.819Z" fill="#EEEEEE"/>
<path d="M606.468 387.082H496.004V389.292H606.468V387.082Z" fill="#EEEEEE"/>
<path d="M606.468 382.977C609.308 382.977 611.833 385.187 611.833 388.344C611.833 391.186 609.624 393.712 606.468 393.712C603.627 393.712 601.102 391.502 601.102 388.344C601.102 385.503 603.627 382.977 606.468 382.977Z" fill="#EEEEEE"/>
<path d="M773.426 292.047L828.659 387.713L826.449 388.976L771.217 292.995L773.426 292.047Z" fill="#EEEEEE"/>
<path d="M832.131 385.818C833.709 388.344 832.762 391.502 830.237 393.08C827.712 394.659 824.556 393.712 822.978 391.186C821.4 388.66 822.347 385.503 824.872 383.924C827.397 382.345 830.553 383.293 832.131 385.818Z" fill="#EEEEEE"/>
<path d="M826.449 387.713L828.659 388.976L773.427 484.641L771.217 483.378L826.449 387.713Z" fill="#EEEEEE"/>
<path d="M776.899 486.851C775.321 489.377 772.165 490.324 769.64 488.746C767.115 487.167 766.168 484.01 767.746 481.484C769.324 478.958 772.48 478.011 775.005 479.59C777.53 480.852 778.161 484.325 776.899 486.851Z" fill="#EEEEEE"/>
<path d="M772.165 483.062H661.7V485.272H772.165V483.062Z" fill="#EEEEEE"/>
<path d="M661.7 489.377C664.663 489.377 667.065 486.974 667.065 484.009C667.065 481.045 664.663 478.642 661.7 478.642C658.737 478.642 656.334 481.045 656.334 484.009C656.334 486.974 658.737 489.377 661.7 489.377Z" fill="#EEEEEE"/>
<path d="M607.414 387.713L662.647 483.378L660.753 484.641L605.521 388.976L607.414 387.713Z" fill="#EEEEEE"/>
<path d="M602.049 390.87C600.471 388.344 601.418 385.187 603.943 383.608C606.468 382.03 609.624 382.977 611.202 385.503C612.78 388.029 611.833 391.186 609.308 392.765C606.468 394.343 603.312 393.396 602.049 390.87Z" fill="#EEEEEE"/>
<path d="M660.753 292.047L662.647 292.995L607.414 388.976L605.521 387.713L660.753 292.047Z" fill="#EEEEEE"/>
<path d="M657.281 289.837C658.86 287.312 662.016 286.364 664.541 287.943C667.065 289.522 668.012 292.679 666.434 295.205C664.856 297.731 661.7 298.678 659.175 297.099C656.65 295.521 655.703 292.363 657.281 289.837Z" fill="#EEEEEE"/>
<path d="M772.165 291.416H661.7V293.626H772.165V291.416Z" fill="#EEEEEE"/>
<path d="M772.164 287.312C775.005 287.312 777.53 289.522 777.53 292.679C777.53 295.521 775.32 298.046 772.164 298.046C769.324 298.046 766.799 295.836 766.799 292.679C767.114 289.522 769.324 287.312 772.164 287.312Z" fill="#EEEEEE"/>
<path d="M939.123 387.713L994.355 483.378L992.462 484.641L937.229 388.976L939.123 387.713Z" fill="#EEEEEE"/>
<path d="M997.827 481.484C999.405 484.01 998.459 487.167 995.934 488.746C993.409 490.324 990.253 489.377 988.675 486.851C987.097 484.326 988.043 481.168 990.568 479.59C993.093 478.011 996.565 478.958 997.827 481.484Z" fill="#EEEEEE"/>
<path d="M992.462 483.378L994.355 484.641L939.123 580.307L937.23 579.359L992.462 483.378Z" fill="#EEEEEE"/>
<path d="M942.595 582.517C941.017 585.043 937.861 585.99 935.336 584.411C932.811 582.833 931.864 579.675 933.442 577.149C935.02 574.624 938.177 573.676 940.701 575.255C943.226 576.834 944.173 579.991 942.595 582.517Z" fill="#EEEEEE"/>
<path d="M937.861 578.728H827.397V580.938H937.861V578.728Z" fill="#EEEEEE"/>
<path d="M827.396 585.358C830.359 585.358 832.762 582.955 832.762 579.991C832.762 577.026 830.359 574.623 827.396 574.623C824.433 574.623 822.031 577.026 822.031 579.991C822.031 582.955 824.433 585.358 827.396 585.358Z" fill="#EEEEEE"/>
<path d="M773.426 483.378L828.659 579.359L826.449 580.307L771.217 484.641L773.426 483.378Z" fill="#EEEEEE"/>
<path d="M767.746 486.851C766.168 484.326 767.115 481.168 769.64 479.59C772.164 478.011 775.32 478.958 776.899 481.484C778.477 484.01 777.53 487.167 775.005 488.746C772.48 490.009 769.324 489.377 767.746 486.851Z" fill="#EEEEEE"/>
<path d="M826.449 387.713L828.659 388.976L773.426 484.641L771.217 483.378L826.449 387.713Z" fill="#EEEEEE"/>
<path d="M822.978 385.819C824.556 383.293 827.712 382.346 830.237 383.924C832.762 385.503 833.709 388.66 832.131 391.186C830.553 393.712 827.397 394.659 824.872 393.08C822.347 391.502 821.4 388.344 822.978 385.819Z" fill="#EEEEEE"/>
<path d="M937.861 387.082H827.397V389.292H937.861V387.082Z" fill="#EEEEEE"/>
<path d="M938.176 382.977C941.017 382.977 943.542 385.187 943.542 388.344C943.542 391.186 941.333 393.712 938.176 393.712C935.336 393.712 932.811 391.502 932.811 388.344C932.811 385.503 935.02 382.977 938.176 382.977Z" fill="#EEEEEE"/>
<path d="M1158.16 387.713L1160.05 388.976L1104.82 484.641L1102.93 483.378L1158.16 387.713Z" fill="#EEEEEE"/>
<path d="M1108.29 486.851C1106.71 489.377 1103.56 490.324 1101.03 488.746C1098.51 487.167 1097.56 484.01 1099.14 481.484C1100.72 478.958 1103.87 478.011 1106.4 479.59C1108.92 480.852 1109.87 484.325 1108.29 486.851Z" fill="#EEEEEE"/>
<path d="M1103.87 483.062H993.409V485.272H1103.87V483.062Z" fill="#EEEEEE"/>
<path d="M993.409 489.377C990.568 489.377 988.043 487.167 988.043 484.009C988.043 480.852 990.253 478.642 993.409 478.642C996.249 478.642 998.774 480.852 998.774 484.009C998.774 487.167 996.249 489.377 993.409 489.377Z" fill="#EEEEEE"/>
<path d="M939.123 387.713L994.355 483.378L992.462 484.641L937.229 388.976L939.123 387.713Z" fill="#EEEEEE"/>
<path d="M933.442 390.87C931.864 388.344 932.811 385.187 935.336 383.608C937.861 382.03 941.017 382.977 942.595 385.503C944.173 388.029 943.226 391.186 940.701 392.765C938.177 394.343 935.02 393.396 933.442 390.87Z" fill="#EEEEEE"/>
<path d="M992.462 292.047L994.355 292.995L939.123 388.976L937.23 387.713L992.462 292.047Z" fill="#EEEEEE"/>
<path d="M988.674 289.837C990.252 287.312 993.408 286.364 995.933 287.943C998.458 289.522 999.405 292.679 997.827 295.205C996.249 297.731 993.092 298.678 990.568 297.099C988.358 295.521 987.411 292.363 988.674 289.837Z" fill="#EEEEEE"/>
<path d="M1270.83 387.713L1326.06 483.378L1323.85 484.641L1268.62 388.976L1270.83 387.713Z" fill="#EEEEEE"/>
<path d="M1329.54 481.484C1331.11 484.01 1330.17 487.167 1327.64 488.746C1325.12 490.324 1321.96 489.377 1320.38 486.851C1318.81 484.325 1319.75 481.168 1322.28 479.59C1324.8 478.011 1327.96 478.958 1329.54 481.484Z" fill="#EEEEEE"/>
<path d="M1323.85 483.378L1326.06 484.641L1270.83 580.306L1268.62 579.359L1323.85 483.378Z" fill="#EEEEEE"/>
<path d="M1274.3 582.516C1272.73 585.042 1269.57 585.989 1267.04 584.411C1264.52 582.832 1263.57 579.675 1265.15 577.149C1266.73 574.623 1269.88 573.676 1272.41 575.255C1274.93 576.833 1275.57 579.991 1274.3 582.516Z" fill="#EEEEEE"/>
<path d="M1269.57 578.728H1159.11V580.938H1269.57V578.728Z" fill="#EEEEEE"/>
<path d="M1159.11 585.358C1162.07 585.358 1164.47 582.955 1164.47 579.991C1164.47 577.026 1162.07 574.623 1159.11 574.623C1156.14 574.623 1153.74 577.026 1153.74 579.991C1153.74 582.955 1156.14 585.358 1159.11 585.358Z" fill="#EEEEEE"/>
<path d="M1104.82 483.378L1160.05 579.359L1158.16 580.306L1102.93 484.641L1104.82 483.378Z" fill="#EEEEEE"/>
<path d="M1099.45 486.851C1097.88 484.325 1098.82 481.168 1101.35 479.589C1103.87 478.011 1107.03 478.958 1108.61 481.484C1110.18 484.009 1109.24 487.167 1106.71 488.745C1103.87 490.008 1100.72 489.377 1099.45 486.851Z" fill="#EEEEEE"/>
<path d="M1158.16 387.713L1160.05 388.976L1104.82 484.641L1102.93 483.378L1158.16 387.713Z" fill="#EEEEEE"/>
<path d="M1154.69 385.818C1156.27 383.293 1159.42 382.345 1161.95 383.924C1164.47 385.503 1165.42 388.66 1163.84 391.186C1162.26 393.712 1159.11 394.659 1156.58 393.08C1154.06 391.502 1153.11 388.344 1154.69 385.818Z" fill="#EEEEEE"/>
<path d="M1269.57 387.082H1159.1V389.292H1269.57V387.082Z" fill="#EEEEEE"/>
<path d="M1269.57 382.977C1272.41 382.977 1274.93 385.187 1274.93 388.344C1274.93 391.186 1272.72 393.712 1269.57 393.712C1266.41 393.712 1264.2 391.502 1264.2 388.344C1264.52 385.503 1266.73 382.977 1269.57 382.977Z" fill="#EEEEEE"/>
<path d="M1440 298.046L1436.53 292.047L1434.64 292.995L1440 302.466V298.046Z" fill="#EEEEEE"/>
<path d="M1440 473.906L1434.63 483.378L1436.53 484.641L1440 478.642V473.906Z" fill="#EEEEEE"/>
<path d="M1440 481.168C1439.68 480.537 1439.05 479.905 1438.11 479.274C1435.58 477.695 1432.43 478.642 1430.85 481.168C1429.27 483.694 1430.22 486.851 1432.74 488.43C1435.27 490.008 1438.42 489.061 1439.68 486.535V481.168H1440Z" fill="#EEEEEE"/>
<path d="M1435.27 483.062H1324.8V485.272H1435.27V483.062Z" fill="#EEEEEE"/>
<path d="M1324.8 489.377C1321.96 489.377 1319.44 487.167 1319.44 484.009C1319.44 480.852 1321.65 478.642 1324.8 478.642C1327.64 478.642 1330.17 480.852 1330.17 484.009C1330.17 487.167 1327.96 489.377 1324.8 489.377Z" fill="#EEEEEE"/>
<path d="M1270.83 387.713L1326.06 483.378L1323.85 484.641L1268.62 388.976L1270.83 387.713Z" fill="#EEEEEE"/>
<path d="M1265.15 390.87C1263.57 388.344 1264.52 385.187 1267.04 383.608C1269.57 382.03 1272.73 382.977 1274.3 385.503C1275.88 388.029 1274.93 391.186 1272.41 392.765C1269.88 394.343 1266.73 393.396 1265.15 390.87Z" fill="#EEEEEE"/>
<path d="M1323.85 292.047L1326.06 292.995L1270.83 388.976L1268.62 387.713L1323.85 292.047Z" fill="#EEEEEE"/>
<path d="M1320.38 289.837C1321.96 287.312 1325.12 286.364 1327.64 287.943C1330.17 289.522 1331.11 292.679 1329.54 295.205C1327.96 297.731 1324.8 298.678 1322.28 297.099C1319.75 295.521 1318.81 292.363 1320.38 289.837Z" fill="#EEEEEE"/>
<path d="M1440 481.168C1438.42 478.642 1435.27 478.011 1433.06 479.274C1430.53 480.852 1429.58 484.01 1431.16 486.535C1432.74 489.061 1435.9 490.008 1438.42 488.43C1439.05 488.114 1439.68 487.483 1440.32 486.535V481.168H1440Z" fill="#EEEEEE"/>
<path d="M1440 473.906L1434.63 483.378L1436.53 484.641L1440 478.642V473.906Z" fill="#EEEEEE"/>
<path d="M110.009 100.401L165.241 196.067L163.347 197.33L108.115 101.664L110.009 100.401Z" fill="#EEEEEE"/>
<path d="M169.029 194.172C170.607 196.698 169.66 199.855 167.135 201.434C164.61 203.013 161.454 202.066 159.876 199.54C158.298 197.014 159.245 193.857 161.77 192.278C164.295 190.699 167.451 191.647 169.029 194.172Z" fill="#EEEEEE"/>
<path d="M163.347 196.066L165.241 197.329L110.009 292.995L108.115 292.047L163.347 196.066Z" fill="#EEEEEE"/>
<path d="M113.481 295.205C111.903 297.731 108.746 298.678 106.222 297.099C103.697 295.52 102.75 292.363 104.328 289.837C105.906 287.312 109.062 286.364 111.587 287.943C114.112 289.522 115.059 292.679 113.481 295.205Z" fill="#EEEEEE"/>
<path d="M109.063 291.416H-1.40186V293.626H109.063V291.416Z" fill="#EEEEEE"/>
<path d="M-1.40216 297.731C-4.24268 297.731 -6.76758 295.52 -6.76758 292.363C-6.76758 289.522 -4.55829 286.996 -1.40216 286.996C1.43835 286.996 3.96325 289.206 3.96325 292.363C3.64763 295.52 1.43835 297.731 -1.40216 297.731Z" fill="#EEEEEE"/>
<path d="M276.021 196.067L331.253 292.048L329.044 292.995L273.812 197.329L276.021 196.067Z" fill="#EEEEEE"/>
<path d="M334.725 289.837C336.303 292.363 335.356 295.521 332.832 297.099C330.307 298.678 327.151 297.731 325.573 295.205C323.994 292.679 324.941 289.522 327.466 287.943C329.991 286.68 333.147 287.312 334.725 289.837Z" fill="#EEEEEE"/>
<path d="M329.044 292.047L331.253 292.995L276.021 388.976L273.812 387.713L329.044 292.047Z" fill="#EEEEEE"/>
<path d="M279.493 390.87C277.915 393.396 274.759 394.343 272.234 392.765C269.709 391.186 268.762 388.029 270.34 385.503C271.918 382.977 275.075 382.03 277.599 383.608C280.124 385.187 280.756 388.344 279.493 390.87Z" fill="#EEEEEE"/>
<path d="M274.759 387.081H164.295V389.291H274.759V387.081Z" fill="#EEEEEE"/>
<path d="M164.294 393.712C161.454 393.712 158.929 391.501 158.929 388.344C158.929 385.503 161.138 382.977 164.294 382.977C167.135 382.977 169.66 385.187 169.66 388.344C169.66 391.186 167.135 393.712 164.294 393.712Z" fill="#EEEEEE"/>
<path d="M110.009 292.047L165.241 387.713L163.347 388.976L108.115 292.995L110.009 292.047Z" fill="#EEEEEE"/>
<path d="M104.644 295.205C103.066 292.679 104.013 289.522 106.537 287.943C109.062 286.364 112.219 287.312 113.797 289.837C115.375 292.363 114.428 295.52 111.903 297.099C109.062 298.678 105.906 297.731 104.644 295.205Z" fill="#EEEEEE"/>
<path d="M163.347 196.067L165.241 197.329L110.009 292.995L108.115 292.048L163.347 196.067Z" fill="#EEEEEE"/>
<path d="M159.876 194.172C161.454 191.646 164.61 190.699 167.135 192.278C169.66 193.856 170.607 197.014 169.029 199.539C167.451 202.065 164.295 203.012 161.77 201.434C159.245 199.855 158.298 196.698 159.876 194.172Z" fill="#EEEEEE"/>
<path d="M274.759 195.751H164.295V197.961H274.759V195.751Z" fill="#EEEEEE"/>
<path d="M274.759 202.065C277.722 202.065 280.124 199.662 280.124 196.698C280.124 193.734 277.722 191.331 274.759 191.331C271.795 191.331 269.393 193.734 269.393 196.698C269.393 199.662 271.795 202.065 274.759 202.065Z" fill="#EEEEEE"/>
<path d="M441.718 100.401L496.95 196.067L495.056 197.33L439.508 101.664L441.718 100.401Z" fill="#EEEEEE"/>
<path d="M500.422 194.172C502 196.698 501.053 199.855 498.528 201.434C496.003 203.013 492.847 202.066 491.269 199.54C489.691 197.014 490.638 193.857 493.163 192.278C495.688 190.699 499.159 191.647 500.422 194.172Z" fill="#EEEEEE"/>
<path d="M495.056 196.067L496.95 197.33L441.718 292.995L439.508 292.048L495.056 196.067Z" fill="#EEEEEE"/>
<path d="M445.19 295.205C443.612 297.731 440.455 298.678 437.931 297.099C435.406 295.521 434.459 292.363 436.037 289.838C437.615 287.312 440.771 286.365 443.296 287.943C445.821 289.522 446.768 292.679 445.19 295.205Z" fill="#EEEEEE"/>
<path d="M440.456 291.416H329.991V293.626H440.456V291.416Z" fill="#EEEEEE"/>
<path d="M329.991 298.046C332.954 298.046 335.356 295.643 335.356 292.679C335.356 289.715 332.954 287.312 329.991 287.312C327.028 287.312 324.625 289.715 324.625 292.679C324.625 295.643 327.028 298.046 329.991 298.046Z" fill="#EEEEEE"/>
<path d="M276.021 196.067L331.253 292.048L329.044 292.995L273.812 197.33L276.021 196.067Z" fill="#EEEEEE"/>
<path d="M270.34 199.54C268.762 197.014 269.709 193.857 272.234 192.278C274.759 190.699 277.915 191.646 279.493 194.172C281.071 196.698 280.124 199.855 277.599 201.434C275.075 202.697 271.918 202.065 270.34 199.54Z" fill="#EEEEEE"/>
<path d="M329.044 100.401L331.253 101.664L276.021 197.33L273.812 196.067L329.044 100.401Z" fill="#EEEEEE"/>
<path d="M325.573 98.507C327.151 95.9811 330.307 95.034 332.832 96.6126C335.357 98.1912 336.303 101.349 334.725 103.874C333.147 106.4 329.991 107.347 327.466 105.769C324.941 104.19 323.994 101.033 325.573 98.507Z" fill="#EEEEEE"/>
<path d="M440.456 99.77H329.991V101.98H440.456V99.77Z" fill="#EEEEEE"/>
<path d="M440.771 95.6654C443.611 95.6654 446.136 97.8755 446.136 101.033C446.136 104.19 443.927 106.4 440.771 106.4C437.93 106.4 435.406 104.19 435.406 101.033C435.406 97.8755 437.615 95.6654 440.771 95.6654Z" fill="#EEEEEE"/>
<path d="M607.414 196.067L662.646 292.048L660.753 292.995L605.521 197.329L607.414 196.067Z" fill="#EEEEEE"/>
<path d="M666.434 289.837C668.012 292.363 667.065 295.521 664.54 297.099C662.016 298.678 658.859 297.731 657.281 295.205C655.703 292.679 656.65 289.522 659.175 287.943C661.7 286.68 664.856 287.312 666.434 289.837Z" fill="#EEEEEE"/>
<path d="M660.753 292.047L662.647 292.995L607.414 388.976L605.521 387.713L660.753 292.047Z" fill="#EEEEEE"/>
<path d="M610.886 390.87C609.308 393.396 606.152 394.343 603.627 392.765C601.102 391.186 600.155 388.029 601.733 385.503C603.311 382.977 606.468 382.03 608.993 383.608C611.517 385.187 612.464 388.344 610.886 390.87Z" fill="#EEEEEE"/>
<path d="M606.468 387.081H496.004V389.291H606.468V387.081Z" fill="#EEEEEE"/>
<path d="M496.003 393.712C493.163 393.712 490.638 391.501 490.638 388.344C490.638 385.503 492.847 382.977 496.003 382.977C498.844 382.977 501.369 385.187 501.369 388.344C501.053 391.186 498.844 393.712 496.003 393.712Z" fill="#EEEEEE"/>
<path d="M441.717 292.047L496.95 387.713L495.056 388.976L439.508 292.995L441.717 292.047Z" fill="#EEEEEE"/>
<path d="M436.037 295.205C434.459 292.679 435.406 289.522 437.931 287.943C440.455 286.364 443.612 287.312 445.19 289.837C446.768 292.363 445.821 295.52 443.296 297.099C440.771 298.678 437.615 297.731 436.037 295.205Z" fill="#EEEEEE"/>
<path d="M495.056 196.067L496.95 197.329L441.717 292.995L439.508 292.048L495.056 196.067Z" fill="#EEEEEE"/>
<path d="M491.269 194.172C492.847 191.646 496.003 190.699 498.528 192.278C501.053 193.856 502 197.014 500.422 199.539C498.844 202.065 495.687 203.012 493.163 201.434C490.638 199.855 490.006 196.698 491.269 194.172Z" fill="#EEEEEE"/>
<path d="M606.468 195.751H496.004V197.961H606.468V195.751Z" fill="#EEEEEE"/>
<path d="M606.468 202.065C609.431 202.065 611.833 199.662 611.833 196.698C611.833 193.734 609.431 191.331 606.468 191.331C603.504 191.331 601.102 193.734 601.102 196.698C601.102 199.662 603.504 202.065 606.468 202.065Z" fill="#EEEEEE"/>
<path d="M826.449 196.066L828.659 197.329L773.426 292.995L771.217 292.047L826.449 196.066Z" fill="#EEEEEE"/>
<path d="M776.899 295.205C775.32 297.731 772.164 298.678 769.64 297.099C767.115 295.52 766.168 292.363 767.746 289.837C769.324 287.312 772.48 286.364 775.005 287.943C777.53 289.522 778.161 292.679 776.899 295.205Z" fill="#EEEEEE"/>
<path d="M772.165 291.416H661.7V293.626H772.165V291.416Z" fill="#EEEEEE"/>
<path d="M661.7 298.046C664.663 298.046 667.065 295.643 667.065 292.679C667.065 289.715 664.663 287.312 661.7 287.312C658.737 287.312 656.334 289.715 656.334 292.679C656.334 295.643 658.737 298.046 661.7 298.046Z" fill="#EEEEEE"/>
<path d="M607.414 196.067L662.647 292.048L660.753 292.995L605.521 197.329L607.414 196.067Z" fill="#EEEEEE"/>
<path d="M602.049 199.539C600.471 197.014 601.418 193.856 603.943 192.278C606.468 190.699 609.624 191.646 611.202 194.172C612.78 196.698 611.833 199.855 609.308 201.434C606.468 202.697 603.312 202.065 602.049 199.539Z" fill="#EEEEEE"/>
<path d="M660.753 100.401L662.647 101.664L607.414 197.33L605.521 196.067L660.753 100.401Z" fill="#EEEEEE"/>
<path d="M657.281 98.507C658.86 95.9811 662.016 95.034 664.541 96.6126C667.065 98.1912 668.012 101.349 666.434 103.874C664.856 106.4 661.7 107.347 659.175 105.769C656.65 104.19 655.703 101.033 657.281 98.507Z" fill="#EEEEEE"/>
<path d="M992.462 292.047L994.355 292.995L939.123 388.976L937.229 387.713L992.462 292.047Z" fill="#EEEEEE"/>
<path d="M942.595 390.87C941.017 393.396 937.861 394.343 935.336 392.765C932.811 391.186 931.864 388.029 933.442 385.503C935.02 382.977 938.177 382.03 940.701 383.608C943.226 385.187 944.173 388.344 942.595 390.87Z" fill="#EEEEEE"/>
<path d="M937.861 387.082H827.397V389.292H937.861V387.082Z" fill="#EEEEEE"/>
<path d="M827.396 393.712C824.556 393.712 822.031 391.502 822.031 388.344C822.031 385.503 824.24 382.977 827.396 382.977C830.237 382.977 832.762 385.187 832.762 388.344C832.762 391.186 830.553 393.712 827.396 393.712Z" fill="#EEEEEE"/>
<path d="M773.426 292.047L828.659 387.713L826.449 388.976L771.217 292.995L773.426 292.047Z" fill="#EEEEEE"/>
<path d="M767.746 295.205C766.168 292.679 767.115 289.522 769.64 287.943C772.164 286.364 775.32 287.312 776.899 289.837C778.477 292.363 777.53 295.521 775.005 297.099C772.48 298.678 769.324 297.731 767.746 295.205Z" fill="#EEEEEE"/>
<path d="M826.449 196.067L828.659 197.329L773.427 292.995L771.217 292.048L826.449 196.067Z" fill="#EEEEEE"/>
<path d="M822.978 194.172C824.556 191.646 827.712 190.699 830.237 192.278C832.762 193.856 833.709 197.014 832.131 199.539C830.553 202.065 827.397 203.012 824.872 201.434C822.347 199.855 821.4 196.698 822.978 194.172Z" fill="#EEEEEE"/>
<path d="M1323.85 292.047L1326.06 292.995L1270.83 388.976L1268.62 387.713L1323.85 292.047Z" fill="#EEEEEE"/>
<path d="M1274.3 390.87C1272.73 393.396 1269.57 394.343 1267.04 392.765C1264.52 391.186 1263.57 388.029 1265.15 385.503C1266.73 382.977 1269.88 382.03 1272.41 383.608C1274.93 385.187 1275.57 388.344 1274.3 390.87Z" fill="#EEEEEE"/>
<path d="M1269.57 387.082H1159.11V389.292H1269.57V387.082Z" fill="#EEEEEE"/>
<path d="M1159.11 393.712C1156.26 393.712 1153.74 391.502 1153.74 388.344C1153.74 385.503 1155.95 382.977 1159.11 382.977C1161.95 382.977 1164.47 385.187 1164.47 388.344C1164.47 391.186 1161.95 393.712 1159.11 393.712Z" fill="#EEEEEE"/>
<path d="M1440 298.046L1436.53 292.047L1434.63 292.995L1440 302.466V298.046Z" fill="#EEEEEE"/>
<path d="M1440 289.837C1438.42 287.312 1435.27 286.68 1433.06 287.943C1430.53 289.522 1429.58 292.679 1431.16 295.205C1432.74 297.731 1435.9 298.678 1438.42 297.099C1439.05 296.783 1439.68 296.152 1440.32 295.205V289.837H1440Z" fill="#EEEEEE"/>
<path d="M276.021 4.73596L331.253 100.401L329.044 101.664L273.812 5.99887L276.021 4.73596Z" fill="#EEEEEE"/>
<path d="M334.725 98.507C336.303 101.033 335.357 104.19 332.832 105.769C330.307 107.347 327.151 106.4 325.573 103.874C323.994 101.349 324.941 98.1912 327.466 96.6126C329.991 95.034 333.147 95.9811 334.725 98.507Z" fill="#EEEEEE"/>
<path d="M329.044 100.401L331.253 101.664L276.021 197.33L273.812 196.067L329.044 100.401Z" fill="#EEEEEE"/>
<path d="M279.493 199.54C277.915 202.066 274.759 203.013 272.234 201.434C269.709 199.855 268.762 196.698 270.34 194.172C271.918 191.647 275.075 190.699 277.599 192.278C280.124 193.541 280.756 197.014 279.493 199.54Z" fill="#EEEEEE"/>
<path d="M274.759 195.751H164.295V197.961H274.759V195.751Z" fill="#EEEEEE"/>
<path d="M164.294 202.065C167.258 202.065 169.66 199.662 169.66 196.698C169.66 193.734 167.258 191.331 164.294 191.331C161.331 191.331 158.929 193.734 158.929 196.698C158.929 199.662 161.331 202.065 164.294 202.065Z" fill="#EEEEEE"/>
<path d="M110.009 100.401L165.241 196.067L163.347 197.33L108.115 101.664L110.009 100.401Z" fill="#EEEEEE"/>
<path d="M104.644 103.559C103.066 101.033 104.013 97.8756 106.537 96.2969C109.062 94.7183 112.219 95.6655 113.797 98.1913C115.375 100.717 114.428 103.874 111.903 105.453C109.062 107.032 105.906 106.084 104.644 103.559Z" fill="#EEEEEE"/>
<path d="M495.056 4.73596L496.95 5.99887L441.717 101.664L439.508 100.401L495.056 4.73596Z" fill="#EEEEEE"/>
<path d="M445.19 103.559C443.612 106.084 440.455 107.032 437.931 105.453C435.406 103.874 434.459 100.717 436.037 98.1913C437.615 95.6655 440.771 94.7183 443.296 96.2969C445.821 97.8756 446.768 101.033 445.19 103.559Z" fill="#EEEEEE"/>
<path d="M440.456 99.77H329.991V101.98H440.456V99.77Z" fill="#EEEEEE"/>
<path d="M329.991 106.4C327.15 106.4 324.625 104.19 324.625 101.033C324.625 97.8755 326.835 95.6654 329.991 95.6654C332.831 95.6654 335.356 97.8755 335.356 101.033C335.356 104.19 333.147 106.4 329.991 106.4Z" fill="#EEEEEE"/>
<path d="M276.021 4.73596L331.253 100.401L329.044 101.664L273.812 5.99887L276.021 4.73596Z" fill="#EEEEEE"/>
<path d="M270.34 7.89324C268.762 5.36742 269.709 2.21015 272.234 0.631518C274.759 -0.947117 277.915 6.43283e-05 279.493 2.52588C281.071 5.0517 280.124 8.20897 277.599 9.7876C275.075 11.3662 271.918 10.4191 270.34 7.89324Z" fill="#EEEEEE"/>
<path d="M660.753 100.401L662.646 101.664L607.414 197.33L605.521 196.067L660.753 100.401Z" fill="#EEEEEE"/>
<path d="M610.886 199.54C609.308 202.066 606.152 203.013 603.627 201.434C601.102 199.855 600.155 196.698 601.733 194.172C603.311 191.647 606.468 190.699 608.993 192.278C611.517 193.541 612.464 197.014 610.886 199.54Z" fill="#EEEEEE"/>
<path d="M606.468 195.751H496.004V197.961H606.468V195.751Z" fill="#EEEEEE"/>
<path d="M496.003 202.065C493.163 202.065 490.638 199.855 490.638 196.698C490.638 193.541 492.847 191.331 496.003 191.331C498.844 191.331 501.369 193.541 501.369 196.698C501.369 199.855 498.844 202.065 496.003 202.065Z" fill="#EEEEEE"/>
<path d="M441.717 100.401L496.95 196.067L495.056 197.33L439.508 101.664L441.717 100.401Z" fill="#EEEEEE"/>
<path d="M436.037 103.559C434.459 101.033 435.406 97.8756 437.931 96.2969C440.455 94.7183 443.612 95.6655 445.19 98.1913C446.768 100.717 445.821 103.874 443.296 105.453C440.771 107.032 437.615 106.084 436.037 103.559Z" fill="#EEEEEE"/>
<path d="M495.056 4.73596L496.95 5.99887L441.718 101.664L439.508 100.401L495.056 4.73596Z" fill="#EEEEEE"/>
<path d="M491.269 2.52588C492.847 6.43283e-05 496.003 -0.947117 498.528 0.631518C501.053 2.21015 502 5.36742 500.422 7.89324C498.844 10.4191 495.688 11.3662 493.163 9.7876C490.638 8.52469 490.007 5.0517 491.269 2.52588Z" fill="#EEEEEE"/>
</g>
<defs>
<clipPath id="clip0">
<rect width="1502" height="1064" fill="white" transform="translate(-62)"/>
</clipPath>
</defs>
</svg>
