<?xml version="1.0" encoding="UTF-8"?>
<svg xmlns="http://www.w3.org/2000/svg" viewBox="0 0 271.32 272.98">
  <defs>
    <style>
      .cls-1 {
        fill: #fff;
      }

      .cls-2 {
        fill: #c69c6d;
      }
    </style>
  </defs>
  <g id="Layer_2" data-name="Layer 2">
    <polygon class="cls-2" points="83.55 17.91 78.48 14.81 63.67 16.74 57.81 26.35 59.65 37.15 56.38 45.5 50.72 53.03 44.14 93.03 26.13 118.5 16.94 137.77 3.28 177.62 1.94 222.9 12.03 258.3 12.31 259.52 25.75 261.36 164.4 272.91 192.17 254.06 235.57 230.93 244.79 191.82 254.24 186.16 261.57 165.41 257.01 159.4 270.57 115.55 200.34 151.89 179.35 132.44 182.21 128.53 175.44 114.54 186.6 100.12 190.67 82.96 182.53 44.98 167.35 24.29 168.34 12.56 159.59 8.24 151.36 13.8 121.79 7.49 99.05 11.27 83.55 17.91"/>
  </g>
  <g id="Layer_3" data-name="Layer 3">
    <polygon class="cls-1" points="95.23 49.46 97.06 72.28 110.31 85.64 136.75 80.35 144.29 54.91 155.66 55.63 173.83 69.87 180.08 79.42 193.66 72.66 194.08 48.23 178.25 43.94 148.66 48.44 117.67 47.31 95.23 49.46"/>
    <polygon class="cls-1" points="146.59 112.02 149.75 115.57 156.99 116.27 166.11 112.02 164.66 105.54 146.59 112.02"/>
    <polyline class="cls-1" points="110.11 135.1 98.91 171.96 112.03 176.1 116.95 185.54 117.53 194.49 112.16 199.76 90.39 204.7 77.43 247.15 163.26 269.88 235.94 229.36 244.85 189.83 244.81 180.23 244.85 175.1 249.58 171.96 248.82 167.23 257.19 160.47 268.31 115.34 196.44 156.44 112.03 136.59"/>
    <line class="cls-1" x1="156.84" y1="256.17" x2="158.81" y2="259.16"/>
  </g>
  <g id="Layer_1" data-name="Layer 1">
    <g>
      <path d="M82.98,17.48c-.17-.35-.43-.67-.49-1.07,0-.26.1-.48.27-.67.42-.47,3.54-2.46,4.29-2.89,7.8-4.43,18.89-5.9,27.68-4.83l-.91-1.37c.02-1.66,9.72-.34,11.06-.07,4.88.99,10.65,4.07,13.35,8.32-2.11.17-4.16-1.74-6.2-2.65-4.02-1.79-8.37-2.7-12.72-3.3l3.87,1.78c2.49,1.65,5.67,3.22,6.81,6.15-1.25.17-2.02-.85-3.05-1.38-6.77-3.51-13.24-4.72-20.91-4.42l5.5,2.13c.53.38,4.67,2.79,3.81,3.67-2.68-.85-5.02-2.1-7.82-2.71-5.39-1.18-10.67-.82-15.91.8-1.92.59-5.03,2.5-6.4,2.77-.77.15-1.5.01-2.22-.24.83,1.77,2.26,3.26,2.84,5.24.15.5.87,3.62.06,3.6-1.31-1.09-1.95-2.68-3.05-3.97-5.14-6.02-13.55-8.04-19.34-1.63-4.32,4.79-4.66,11.54-.48,16.56.75.89,5.13,4.23,5.01,4.75-.57.55-1.81.8-2.58.78-1.63-.04-3.29-1.71-4.42-.75-1.46,2.56-6.01,6.04-7.04,8.53-.06.14-.08.5.15.45.59-.51,1.08-1.21,1.7-1.66.48-.34,3.72-2.43,3.95-1.23l-4.89,6.55c2.95-.67,5.81-1.76,8.78-2.36,9.63-1.95,19.4-2.81,29.06-4.82,13.36-2.77,27.13-4.77,40.79-2.96,7.68,1.01,15.46,5.17,23.3,2.35,1.06-.38,2.05-1.22,2.99-1.59,5.17-2.03,10.75-2.85,16.25-3.44.16-.17-1.91-3.35-2.19-3.76-3.66-5.33-9.19-11.06-14.32-14.98-8.16-6.23-17.82-9.75-26.83-14.53.14-.43.52-.83,1-.84.92-.02,3.81.88,4.93,1.17,3.84,1.02,7.45,2.57,11.16,3.95.71-3.49,4.61-6.68,8.1-7.02,10.2-.98,14.71,11.4,9.68,19.08,4.77,4.92,9.2,10.07,11.84,16.48,2.08.44,4.61.05,6.87.14,2.88.12,6.25.29,9.1.66,2.36.31,5.95.39,6.31,3.46.31,2.61.66,8.03-2.76,8.31-1.59,8.35-.84,19.13-8.79,24.39l.56,3.79c5.21-.45,10.6-.58,15.65.98.28.39,2.63.73,2.35,1.3-.24.49-.9.48-1.37.49-2.91.08-6.71-.89-9.76-.96-2.22-.05-4.37.23-6.58.32l-.61,6.1c4.25.8,8.38,1.87,12,4.33.62.42,4.15,3.4,4.17,3.76s-.41.37-.8.21c-1.4-.59-3.02-1.86-4.48-2.54-1.35-.63-10.98-4.13-11.5-3.61l-1.38,5.51c3.19,2.52,7.63,4.58,8.71,8.84l-9.89-6.38c-1.77,2.91-3.36,6.17-5.55,8.8-.76.91-4.38,3.73-4.39,4.44,2.12,5.95,6,10.91,9.69,15.93-.68,2.83-4.29,1.26-6.34,1.17,1.29,1.59,2.57,3.4,3.97,4.88,2.49,2.64,6.27,6.34,8.99,8.71,1.31,1.14,6.08,4.12,6.41,5.45.07.3-.24.84-.14.95l30.82-18.78c12.01-5.24,23.81-13.24,35.82-18.21,2.89-1.2,5.31-2.18,4.7,2.26l-13.28,42.21c3.9,2.04,5.91,4.85,4.05,9.3-.32.77-1.86,2.62-1.94,2.96-.2.87.79,3.24.27,5.42-.72,3.01-3.85,5.49-3.93,5.84-.07.31.32.95.27,1.49-.51,5.35-5.49,8.97-10.67,8.74l-9.06,38.71c-.64,1.08-7.32,3.87-8.99,4.74-14.02,7.27-27.18,14.18-40.56,22.63-6.87,4.34-14.39,10.27-21.29,14.11-2.49,1.39-4.26.35-6.88-.34-14.44-3.8-28.92-7.71-43.34-11.6-13.54-3.65-27.05-7.47-40.52-11.37-.7-.7-.77-1.69-.48-2.6,3.43-10.59,7.41-21.06,10.76-31.67.18-.56,1.16-3.86,1-4.03-1.81.41-2.54,2.2-3.81,3.36-2.66,2.44-7.26,4.05-10.77,4.8-1.25.27-3.06.14-4.14.38-.23.05-.89,1.53-1.45,1.98-3.83,3.11-11.31,2.51-15.86,1.69.53,2.49-1.53,2.63-3.5,2.76-4.46.3-10.6-1.24-14.3-3.73s-8.41-8.08-7.23-12.76c.57-.4,3.18,4.07,3.66,4.65,1.41,1.72,3.76,3.96,5.64,5.13,3.88,2.41,8.21,2.99,12.67,3.35l-4.57-3.52c-.63-.94-1.93-2.22-.76-3.2,6.49,3.65,13.48,5.26,20.9,3.66-.58-.88-1.99-.77-2.96-1.16-.8-.33-3.15-1.41-3.16-2.35.04-.47.4-.87.83-1,1.55-.47,5.88.9,7.87.99,4.36.19,9.93-1.3,13.89-3.03-.91.12-5.66-1.2-3.97-2.44,2.91-.75,6.07-1.46,8.75-2.85,1.78-.92,3.62-2.81,5.22-3.63s5.53-1.93,7.39-2.38c4.85-1.17,9.84-.97,14.51-2.58l.11-1.21c-4.66-1.52-9.79-3.4-14.77-3.4-2.24,0-4.8,1.44-6.55-.2-.04-1.31.69-1.39,1.71-1.89,6.43-3.13,15.86-.22,22.01,2.66,2.81-.9,2.4-2.77.76-4.77-2.75-3.34-10.65-5.59-14.87-5.89-1.34-.1-6.21.46-6.81-.37-.5-.7-.27-2.03.62-2.45,1.58-.75,5.63-.95,7.41-.85,4.6.26,8.89,2,12.96,3.98-.4-2.3-2.58-3.96-4.42-5.2-6.17-4.17-15.59-5.11-22.34-1.88-3.51,1.68-6.17,5.13-9.28,7.2-.98.65-2.25,1.8-3.33.63l1.52-3.19c-4.65-.67-9.26-1.84-13.93-2.4-1.42-.17-5.94.55-5.94-1.72,0-1.55,2.28-1.6,3.54-1.68,2.65-.16,5.44.48,8.08.6.22-1.33-2.04-4.76-1.22-5.65,1.12-1.21,2.14.67,2.7,1.58,1.58,2.59,2.07,7.55,3.06.82.48-3.21.13-7.08-.3-10.3-.16-1.21-1.2-2.83-.11-3.85,1.64-.49,2.79,4.12,3.04,5.18.75,3.2.91,6.63.43,9.9-.16,1.06-.74,2.26-1.2,3.23l4.73,1.1c5.17-4.39,10.86-7.5,17.87-7.35l12.36-37.08c.98-1.49,3.83-.48,5.38-.22,27.13,4.54,53.65,12.25,80.15,19.38l3.12-1.62c-7.07-3.88-14.46-10.96-18.93-17.7-.94-1.41-3.86-5.84-3.66-7.31.35-2.67,3.92.39,5.19.29-2.87-3.28-4.2-7.47-6.1-11.3l-3.38,3.03-2.42,1.4c.36-6.19,6.93-9.5,10.67-13.89.88-1.03,5.03-6.93,4.55-7.74-.57-.31-3.47-1.64-3.32-2.32.78-1.29,3.9.69,4.55.12l1.24-4.55c-1.59-.08-4.15.4-4.88-1.36,1.35-1.78,3.59-.95,5.49-.77l.61-4.88c-.34-.35-4.96,1.51-5.79.15,1.27-1.81,3.55-1.48,5.36-2.27l-.51-2.74c-2.76.1-5.65,2.15-7.9-.33-.37,6.48-6.15,11.63-11.55,14.39.09,3.69-1.88,6.84-2.75,10.28,3.12,1.78,6.13,2.18,9.09-.13,1.01-.79,2.08-2.74,3.23-2.88.51-.06.5-.03.44.44-.61,5.13-4.39,7.89-9.45,7.65-1.62,4.11-3.2,7.27-7.63,8.85-7,2.49-14.38.04-19.98-4.43-3.26-2.61-4.45-3.29-8-5.43-3.48-2.1-6.22-4.35-8.22-7.95-3.86,1.1-7.4,3.08-11.01,4.79l-10.78,7.38c1.34-3.09,4.48-5.73,7.23-7.57,4.04-2.71,8.95-5.06,13.49-6.81-.18-1.8.17-3.8,2.38-3.86,1.76-.05,1.8,2.46,2.43,2.65l8.05-.58c-.75,2.9-5.06,2.1-7.32,3.2,8.44,12.6,35.17,12.41,35.41-6.02-4.06-2.66-14.78-8.16-10.95-14.38,3.32-5.38,15.83-5.21,21.09-3.18,1.1.42,2.21,1.5,3.28,1.3-3.24-4.54-6.67-8.78-11.5-11.69-2.36-1.42-4.97-1.95-6.81-4.18-.58-.7-1.13-2.18-1.86-2.72-1.91-1.41-7.72-2.08-9.45-.26-3.49,9.42-5.02,19.05-14.19,24.8-7.57,4.75-21.42,5.03-29.12.44-6.66-3.97-8.6-10.8-9.75-18.02-.27-1.71-.17-6.29-1.11-7.43-.88-1.07-3.48-.16-4.72.14-7.83,1.93-15.53,5.51-23.4,7.46-4.24.3-9.62-6.02-13.23-1.96-.63.71-4.38,6.74-3.97,7.16l4.37-2.8,2.03-.71c-4.15,6.89-8.18,14.28-9.15,22.44.91-.14,2-1.83,2.74-.77-2.2,5.39-5.69,10.23-9.16,14.87s-7.63,9.32-11.58,13.82c.23.45.74-.06,1-.22,2.45-1.38,5.56-3.75,8.14-4.68.41-.15,1.04-.46.92.31-7.7,8.03-15.04,16.46-20.44,26.26-.07.66.1.55.46.15,2.33-2.55,4.67-5.4,7.33-7.63.91-.76,4.56-3.41,5.49-3.67.62-.17.51.34.4.71-9.53,10.75-17.31,24.11-22.69,37.45-1.39,3.44-2.37,7.01-3.51,10.53,0,.91.35.28.53-.08,1.76-3.51,3.29-6.94,5.88-9.99.79-.93,2.84-3.5,3.97-2.44-2.81,4.75-5.06,9.73-6.63,15.03-1.7,5.71-3.38,13.2-3.14,19.14.01.37-.23,1.14.3,1.06l4.32-10.48,3-4.47c-.53,5.74-2.28,11.03-1.82,16.93.11,1.47,1.44,6.44,1.19,7.28-.39,1.34-1.69-.09-2.06-.62-1.3-1.84-1.13-3.76-1.58-5.74-.11-.49.19-.54-.61-.47-1.42,6.1-3.3,12.14-3.68,18.46-.02.33-.2,1.16.31,1.08.53-3.14,2.26-5.97,4.43-8.24.21.05.35.65.35.81.05,2.06-1.41,6.38-1.69,8.84-.52,4.6-.4,9.33-.21,13.95l1.08,6.31c.23-2.6.38-5.25,1.3-7.71.56-1.52,1.5-2.72,2.07-4.19l.62.18c.61.9-.5,5.56-.62,7-.32,3.95-.35,8.58,0,12.51.12,1.34,1.26,6.53,1.1,7.18-.11.44-.31.63-.65.9-1.83-1.51-2.69-3.75-3.13-6.02-.12-.62-.23-3.84-.41-4.02-.08-.08-.81,0-1.18-.18-2.31-1.11-3.85-11.77-3.98-14.34-.07-1.39.31-2.56.3-3.66,0-1.48-.7-3.07,0-4.73l-1.82,2.13c-.55-1.29-1.11-2.35-1.24-3.8-.3-3.32.14-8.54.66-11.88.3-1.87,1.75-5.51,1.79-6.79.02-.59-1.38-3.53-1.52-5.16-.52-6.1.5-12.32,2.13-18.16-1.2,1.09-.76,2.6-2.9,2.47-.53-.03-.81-.8-.91-1.24-.46-1.98.7-6.12,1.22-8.25,1.91-7.75,5.62-15.99,9.26-23.09.99-1.93,3.02-4.58,3.71-6.37.33-.87-1.17-.14-1.61-.2-.82-.11-1.27-.85-1.29-1.62-.04-1.5,2.53-6.51,3.36-8.1,2.79-5.36,6.26-9.97,10.23-14.49-1.99-.26-3.61,0-2.91-2.6.95-3.49,9.9-12.51,12.67-16.02,1.31-1.66,7.56-9.72,7.89-11.06.14-.56-.31-2.56-.26-3.59.17-3.84,2.25-8.37,3.98-11.74-3.76.24-1.48-3.09-1.22-5.19-.41-.44-2.18,2.28-3.67,1.38-.39-.24-.77-1.73-.83-2.23-.52-4.31,4.71-10.7,7.89-13.32.88-.72,2.73-1.07,2.26-2.31-1.32,1.71-3.71,1.15-3.15-1.31.28-1.24,4.39-6.66,5.44-7.99,1.88-2.38,4.03-4.54,6.06-6.79-.51-1.59-1.72-2.91-2.34-4.58-4.96-13.4,10.62-28.28,23.53-19.26.9.63,1.69,1.74,2.65,2.09ZM165.08,22.36c1.03-3.32,1.41-5.84-.25-9.06-2.97-5.75-10.15-4.47-11.65,1.42,4.46,1.59,8.17,4.77,11.9,7.63ZM188.28,45.87c-6.52-.81-13.12-.14-19.6.69l-5.73,1.44c4.32-.48,8.62-1.58,12.97-1.83,3.74-.21,7.54.15,11.29,0,.37-.01,1.14.23,1.06-.3ZM138.53,50.13c-.13-.57-.8-.61-1.27-.72-5.03-1.16-10.24-1.28-15.37-1.75l-17.24,1.25c0,.53,1.34.34,1.69.31,2.31-.15,4.69-.37,7-.64,8.41.05,16.93-.09,25.19,1.54ZM182.17,51.36l-2.26.05c-2.49,3.35-3.9,7.46-5.67,11.24.64.14.69-.33.98-.69,1.71-2.16,3.75-4.96,5.25-7.27.32-.49,2-3,1.7-3.33ZM180.75,62.45c.32-.22.74-.17,1.13-.54.61-.58,2.99-4.54,3.6-5.57.53-.89,1.84-2.89,2.06-3.75.14-.54.14-.56-.32-.92-.97.66-1.6,1.16-1.68,2.43l-.6-.61-4.88,9.31c0,1.1.51-.24.7-.36ZM127.23,54.72c-.97-.24-2.68-.7-3.51,0-.37.31-2.38,3.59-2.76,4.27l-3.5,7.33,9.76-11.59ZM133.34,55.33c-.88.11-1.56-.62-2.28,0-.42.36-2.24,3.01-2.72,3.7-1.17,1.69-2.47,3.88-3.24,5.76l8.24-9.46ZM181.87,75.47c.89,1.14,4.29-.02,5.4-.55,6.33-3.03,6.54-13.85,6.81-19.9-.41.16-.53,1.6-.57,2.02-.8,8.03-1.19,18.08-11.64,18.43ZM141.88,60.52c-.93-.15-.49.24-.62.74-1.7,6.59-3.19,13.26-9.18,17.39-7.71,5.32-23.76,5.55-29.22-3.08-2.83-4.47-2.8-9.42-3.72-14.44l-.3,2.89c.26,15.34,12.64,21.44,26.56,18.02,10.85-2.66,14.65-11.35,16.47-21.53ZM164.17,79.74h4.43c.3,0,3.08,1.02,3.58,1.24.22.1.67,1.56,1.15-.32-2.64-1.2-5.39-1.9-8.32-1.45-.27.04-.92.13-.84.53ZM156.84,115.15c1.71,1.24,8.28-4.01,7.5-6.43l-3.24-1.37-4.27,7.8ZM149.6,114.46c.57.47,4.47,1.24,5.11.85l2.74-5.35c-2.92,1.08-6,2.2-9.15,2.14-.15.13,1.15,2.23,1.3,2.35ZM266.72,118.51c-.1-.1-2.22.79-2.56.95-8.02,3.79-15.92,8.17-23.79,12.23-3.48,1.8-7.18,3.29-10.45,5.44.2,1.66.13,2.71-.23,4.33-1.05,4.78-3.27,9.7-4.18,14.59,2.85-2.59,4.66-6.2,7.31-9.01,5.62-5.94,7.73-4.46,9.47,3.21,1.26-1.63,4.87-5.31,7.01-3.5.83.7,3.22,8.49,2.76,8.99-3.42-.01-3.21-4.77-4.73-7.02-.82.79-3.78,3.19-4.07,4.19-.4,1.34,1.32,3.41.87,4.97-2.37.06-2.68-1.69-3.36-3.5-1.03-2.73-1.47-5.65-2.44-8.4-.62-.43-2.86,1.78-3.37,2.28-3.89,3.85-6.9,9.56-11.04,13.37-3.49,9.81-5.37,21.21-9.17,30.81-.31.77-.75,1.44-1.29,2.06l-.39-2.21,8.02-28.31c-1.62,1.25-3.28,2.75-4.94,3.91-2.28,1.6-6.15,3.44-8.02,5.11-4.65,4.15,2.31,8.05,2.04,12.48-.34,5.46-6.91,10.66-11.12,13.54-4.79,3.28-11.32,6.63-17.19,4.63-.52,1.5-3.06,11.68-3.66,12.07-.37.24-.83.13-1.23.14-.39-1.71,3.74-12.55,3.33-13.1-5.95-3.89-15.61-5.52-20.43,1.04-5.55,7.57,4.44,10.68,4.6,17.09.11,4.26-3.33,7.48-7.27,8.32-2.15.46-7.78,0-8.01,3.29-.28,4.09,8.42,5.03,11.28,5.33-.18,2.43-5.15,1.95-6.95,1.63-4.67-.82-9.09-4.48-6.6-9.54,2.68-5.45,9.59-2.18,13.11-5.51,4.21-3.99-1.94-8.04-3.72-11.26-3.56-6.44,1.65-14.13,7.97-16.24,6.9-2.3,10.49-.41,16.5,2.46.27.13.22.53.61,0l4.99-15.78c-.56-1.02-1.39-1.71-2.03-2.75s-2.16-5.25-3.4-4.84c-1.72.58-5.71,6.21-8.12,7.79-.79.52-3.38,2.28-2.83.23.19-.71,7.47-8.46,8.48-9.23,5.31-4.06,6.15,2.64,8.85,5.65l6.99-22.85-35.06-9.81-7.28,24.85c.06.23,3.31,2.56,3.82,2.87.59.37,7.05,2.99,3.32,3.43-3.13.37-5.33-1.85-7.65-3.37-.3-.2-.23-.5-.61,0l-3.18,11.41c.29.9,5.34,1.37,6.62,2.54.25.23.65.19.37.86-.52,1.22-6.7-.27-7.94-.62l-4.55,15.3-1.05.11c-.82-.26-.26-1.81-.09-2.48,1.12-4.59,2.82-9.14,4.18-13.67-4.16-1.35-5.7-4.32-10.51-3.04-2.11.56-4.02,2.35-6.28,2.12-.52-1.67,2.04-2.9,3.36-3.51,5.82-2.67,8.98-1.12,14.04,1.98l3.63-12.77c-1.55-1.19-4.1-1.66-5.45-2.95s-4.01-8.03-4.47-8.11c-1.27-.21-2.62,2.19-3.79,2.64l2.27,4.76c.13.76,2.99,3.23,2.96,3.46-.26,1.67-2.8.39-3.59-.23-1.6-1.26-3.47-5-4.19-6.94-.55-1.47-2.42-9.39-3.98-9.39-5.01,2.91-7.47,8.6-11.75,12.31-.87.76-3.31,2.88-4.39,2.57l-.46-.69,13.23-14.86c5.28-5,8.16,1.86,9.01,6.42,2.2-1.59,3.99-4.32,6.71-1.67,2.22,2.15,2.36,6.5,5.02,8.09.48.29,3.97,1.97,4.14,1.82l7.33-23.5-46.09-9.77-10.99,34.19c5.09.55,16.26,5.78,16.77,11.49.12,1.3-.9,3.08-.87,3.28s2.01,2.44,2.42,3.39c1.61,3.82-.46,7.81-4.59,8.4.96,3.38-1.45,4.2-4.2,4.8-2.01.43-4.34.4-6.29.73-4.24.72-8.54,1.39-12.55,3.02l-12.66,39.05c28.2,8.03,56.64,15.22,84.95,22.82l29.7-19.09c2.85-1.2,5.19-3.38,7.87-4.95,10.12-5.91,21.66-10.5,31.9-16.33.4-.2.48-.56.62-.93.74-1.91,1.07-5.65,1.61-7.83,2.22-9.1,4.84-18.27,6.44-27.51.07-.38.43-.75.44-1.02.02-.36-1.25-2.19-1.32-3.29-.08-1.45.79-3.13,1.63-4.29-2.74-2.25-2.13-6.3.51-8.39,1.34-1.06,3.01-1.19,4.42-1.99-4.75-3.9.73-10.09,5.22-11.33l13.7-43.45ZM229.18,137.74l-32.8,19.85-7.69,24.26c.16,1.27,5.39,2.09,4.47,3.49-2.02.81-3.71-.02-5.49-.91l-4.56,15.84c4.9,1.39,9.98-1.53,13.99-4.12,3.19-2.06,10.1-7.12,9.8-11.26-.22-3-3.81-4.61-3.34-8.83.61-5.48,8.84-8.5,13.02-11.41,2.04-1.42,3.93-3.04,5.9-4.56l6.7-22.37ZM249.67,170.36c.34.53,3.7.15,4.3-.05,3.45-1.13,7.7-6.29,2.68-8.46.03.62-.18.97-.59,1.39-1.11,1.15-3.9,2.2-5.21,3.64-.62.69-1.73,2.61-1.18,3.47ZM256.96,173.15c-.44-.46-10.59,4.02-11.6,5.03-1.11,1.79-.56,2.83,1.45,3.14,4.38.66,10.87-3.18,10.15-8.17ZM244.76,187.77c3.36,1.22,6.76-.31,7.92-3.64-.74.21-1.56.78-2.31.9-2.79.42-5.36-1.37-5.62,2.74Z"/>
      <path d="M135.02,92.26c-.39.58-10.39.23-12.05.31-5.6.29-11.56,1.42-16.95,2.89-2.55.7-5.01,1.82-7.63,2.29,2.21-2.15,5.93-3.45,8.86-4.41,6.77-2.23,15.6-3.75,22.72-3.21.89.07,6.06.6,5.04,2.13Z"/>
      <path d="M160.66,122.48c.41.93-.18,1.43-.76,2.14-4.81,5.83-15.79,6.17-21.63,1.78-.25-.19-2.58-2.49-.95-2.41,2.06.57,4.32,1.24,6.44,1.5,4.21.53,8.16.62,12.18-.87,1.63-.6,3.05-1.67,4.72-2.14Z"/>
      <path d="M17.69,200.03c1.65-.56,1.34,2.25,1.67,3.47,1.81,6.65,5.5,12.33,10.01,17.42-.71,1.18-1.58.64-2.61.21-4.71-2.01-8.61-10.12-9.51-14.91-.22-1.17-.76-5.78.44-6.18Z"/>
      <path d="M75.2,31.52c.76-.92-5.1-6.95-6.66-6.76l-.05-1.17c5.73-.49,11.77,6.31,9.94,11.92-1,3.07-4.78-1.35-6.18-2.4-.84-.64-3.76-1.91-3.45-2.95.44-1.46,5.53.68,6.4,1.36Z"/>
      <path d="M20.25,240.91c.6,5.56,1.1,10.58,3.31,15.77.31.74,2.52,4.36,2.19,4.68-4.32-.28-5.88-5.05-6.79-8.62-.61-2.36-.93-4.65-.72-7.08.13-1.47.27-4.46,2.01-4.75Z"/>
      <path d="M77.49,145.99c1.41.02,3.91,9.22,4.09,10.86.16,1.48.42,9.54-1.34,9.58-1.08-1.53-.59-3.6-.8-5.3-.52-4.11-2.35-10.4-2.38-14.12,0-.34.07-1.03.43-1.02Z"/>
      <path d="M22.94,153.54l-1.43.03c-1.66-1.4,3.83-9.05,5-10.35.68-.75,2.01-2.39,3.05-2.13.77.2.1,1.04-.1,1.42-1.9,3.7-4.77,7.18-6.52,11.02Z"/>
      <path d="M61.32,96.53c.52-.13.61.42.75.77.54,1.33.79,3.1,1.3,4.5,1.04,2.81,2.36,5.5,3.76,8.15l-.33.93c-1.56.39-4.14-4.18-4.65-5.41-.55-1.34-2.69-8.47-.83-8.93Z"/>
      <path d="M59.63,85.55c.24.23-1.59,5.43-1.76,6.33-.52,2.79-.22,5.99-1.16,8.64-2.08.24-1.7-6-1.5-7.34.38-2.44,1.67-7.16,4.42-7.63Z"/>
      <path d="M57.08,78.87l.72.43c.13.52-2.17,3.86-2.6,4.72-.93,1.83-1.84,4.96-2.77,6.39-1.12,1.71-1.89.74-1.79-.93.23-3.62,3.21-8.79,6.44-10.6Z"/>
      <path d="M76.63,114.94c.29.36.41.8.39,1.26l-.7.44c-4.31-1.7-7.97-6.19-7.84-10.94.66-.16.68.37.98.7,1.57,1.69,2.8,4.21,4.36,6.02.77.89,2.25,1.85,2.81,2.53Z"/>
      <path d="M179.57,146.88l-1.24-.17-2.89-8.35.18-1.23c3.62.65,4.86,6.62,3.95,9.75Z"/>
      <path d="M70.47,33.18c1.61.01,4.82,3.71,3.52,4.6-1.15.79-4.59-2.81-4.88-3.98.02-.3,1.02-.62,1.37-.62Z"/>
      <path d="M135.97,230.5c1.91,1.44,5.03.14,6.79.69.3.09.58.37.5.71-2.04,2.27-5.55,1.83-8.23,1.07l-6.72,23.2c-.9.05-1.37-.89-1.22-1.65l6.32-22.33c-1.35-1.08-2.72-2.03-3.87-3.35-1.82-2.09-3.78-6.82-5.52-8.22-2.4-1.94-5.59.37-7.47,1.96-3.22,2.72-5.2,6.39-9.02,8.68-2.2,1.32-7.03,3.47-9.13,1.55,3.07-1.62,6.46-2.65,9.25-4.78,4.39-3.36,9.33-11.91,15.86-10.56,2.74.57,5.21,5.7,6.81,7.84.5.66,3.41,4.48,4.09,3.99,1.59-5.46,3.07-11,4.81-16.41.4-1.25,1.32-5.89,2.85-4.5l-6.1,22.09Z"/>
      <path d="M210.12,216.49c5.04-.57,4.77-4.65,6.88-7.61,1.69-2.36,4.21-2.69,6.84-1.69.84.32,4.27,2.05,3.97,3.04-2.8,1.95-6.45-3.2-8.8.06-1.48,2.05-1.48,4.69-3.86,6.52-1.23.94-4.16,2.22-5.64,1.83l-6.17,24.52c-.15.46-.57.65-1.01.51-.99-.31-.15-3.21,0-3.97,1.32-6.87,3.8-13.89,5.34-20.75-3.37-.69-9.76,7.6-12.03,7.01-1-.26-.17-1.55.23-2.02.96-1.12,5.16-4.41,6.51-5.24,1.67-1.03,3.54-1.96,5.54-1.93,1.79-5.79,2.94-11.83,4.85-17.59.23-.71,1.23-4.77,2.38-3.13l.14.74-5.18,19.72Z"/>
      <path d="M178.67,217.71l.18,1.83c-3.53,15.75-7.5,31.4-12.07,46.87-.38,1.27-1.64.88-1.56-.31,2.93-11.8,6.3-23.49,9.33-35.27.55-2.15,2.35-11.62,3.2-12.67.26-.32.47-.54.92-.45Z"/>
      <path d="M212.25,195.43c.3.35-4.76,5.26-5.33,5.8-5.12,4.84-14.23,12.54-20.92,14.49-1.48.43-4.73,1.67-4.58-.76,5.44-1.09,10.59-4.15,15.06-7.38,4.69-3.4,8.8-8.09,13.35-11.37.79-.57,1.41-1.22,2.42-.79Z"/>
      <path d="M140.18,207c-.52.12-1.05.03-1.57-.05-4.5-.67-11.33-2.26-15.81-3.42-.92-.24-4.05-.81-3.65-2.14.18-.59,1.16-.49,1.64-.44,3.91.35,13.54,2.5,17.35,3.73,1.32.43,2.73.6,2.04,2.33Z"/>
      <path d="M237.28,182.61l.17.92c-6.31,3.36-12.85,6.7-19.7,8.84-.08-.87-.07-1.67.8-2.09l18.73-7.67Z"/>
      <path d="M126.47,241.21c-.77,1.12-6.13-2.94-7.48-3.37-2.52-.8-5.18.79-6.86-1.05,3.35-3.03,8.66-1.69,11.9.91.64.52,3,2.67,2.43,3.51Z"/>
      <path d="M239.03,167.42c.47.48.26,1.2.05,1.74-2.32.15-4.16-1.17-6.51-.88-2.18.27-3.81,2.27-5.98,2.41-.27-2.93,4.18-4.64,6.58-4.82,1.23-.09,5.01.69,5.86,1.54Z"/>
      <path d="M176.22,215.59c.16.24.03.84-.28,1.06-.88.61-8.33-1.57-9.17-2.45-.74-.78.08-1.76.99-1.63,1.09.78,8.07,2.44,8.45,3.03Z"/>
      <path d="M143.3,206.44c.42-.3,7.43,2.1,8.07,2.71.33.32.53.59.44,1.07-.36.56-.72.49-1.29.41-1.08-.15-7.03-2.2-7.42-3l.2-1.19Z"/>
    </g>
  </g>
</svg>